<svg xmlns="http://www.w3.org/2000/svg" xmlns:xlink="http://www.w3.org/1999/xlink" width="101.104" height="101.947" viewBox="0 0 101.104 101.947"><defs><style>.a,.d{fill:none;}.b{fill:rgba(0,0,0,0);}.c{clip-path:url(#a);}.d{stroke:#3ad29f;stroke-miterlimit:10;stroke-width:2px;stroke-dasharray:12;}.e{fill:url(#b);}.f{fill:#be7c5e;}.g{fill:url(#c);}.h{fill:url(#d);}.i{fill:#fff;}.j{fill:#fea097;}.k{fill:#dbdbdb;}.l{fill:url(#e);}.m{fill:url(#f);}.n{fill:#4d8af0;}.o{fill:url(#g);}.p{fill:url(#h);}.q{opacity:0.5;}.r{fill:url(#i);}.s{fill:#69f0ae;}.t{fill:url(#j);}</style><clipPath id="a"><circle class="a" cx="50.552" cy="50.552" r="50.552"/></clipPath><linearGradient id="b" x1="0.5" y1="1" x2="0.5" gradientUnits="objectBoundingBox"><stop offset="0" stop-color="gray" stop-opacity="0.251"/><stop offset="0.54" stop-color="gray" stop-opacity="0.122"/><stop offset="1" stop-color="gray" stop-opacity="0.102"/></linearGradient><linearGradient id="c" x1="0.5" y1="1" x2="0.5" y2="0" xlink:href="#b"/><linearGradient id="d" x1="0.5" y1="1" x2="0.5" y2="0" xlink:href="#b"/><linearGradient id="e" x1="0.5" y1="1" x2="0.5" y2="0" xlink:href="#b"/><linearGradient id="f" x1="0.5" y1="1" x2="0.5" y2="0" xlink:href="#b"/><linearGradient id="g" x1="0.5" y1="1" x2="0.5" y2="0" xlink:href="#b"/><linearGradient id="h" x1="0.5" y1="1" x2="0.5" y2="0" xlink:href="#b"/><linearGradient id="i" x1="0.5" y1="1" x2="0.5" y2="0" xlink:href="#b"/><linearGradient id="j" x1="0.5" y1="1" x2="0.5" y2="0" xlink:href="#b"/></defs><rect class="b" width="101.104" height="101.947"/><circle class="a" cx="50.552" cy="50.552" r="50.552"/><g transform="translate(9.5 8.21)"><ellipse class="d" cx="33.588" cy="33.526" rx="33.588" ry="33.526" transform="translate(6.786 11.632)"/><ellipse class="d" cx="40.713" cy="40.71" rx="40.713" ry="40.71" transform="translate(0 4.105)"/><path class="e" d="M46.142,9.225A9.119,9.119,0,0,0,28.049,7.506L0,6.737l.308,4.869s-4,9.326,17.021,11.81v9.425h24.3V17.171A9.235,9.235,0,0,0,46.142,9.225Z" transform="translate(21.714 48.579)"/><path class="f" d="M.3,4.721s-3.845,9.041,16.367,11.452v9.142H40.035V1.106L0,0Z" transform="translate(22.392 55.421)"/><path class="g" d="M21.04,15.072h0a4.46,4.46,0,0,1-6.088,1.367L2.058,8.045A4.342,4.342,0,0,1,.675,2.031h0A4.46,4.46,0,0,1,6.758.664L19.652,9.058A4.343,4.343,0,0,1,21.04,15.072Z" transform="translate(13.571 8.895)"/><path class="f" d="M19.065,13.867h0a4,4,0,0,1-5.516,1.257L1.865,7.4A4.028,4.028,0,0,1,.611,1.87h0A4,4,0,0,1,6.127.613L17.81,8.332A4.028,4.028,0,0,1,19.065,13.867Z" transform="translate(14.25 8.21)"/><ellipse class="f" cx="9.16" cy="9.237" rx="9.16" ry="9.237" transform="translate(48.856 49.263)"/><rect class="h" width="35.963" height="65.684" rx="12.25" transform="translate(21.714)"/><rect class="i" width="35.285" height="63.631" rx="13.64" transform="translate(22.392 0.684)"/><path class="j" d="M25.418,0a2.862,2.862,0,0,1-2.8,2.477H10.531A2.862,2.862,0,0,1,7.735,0H1.33A1.312,1.312,0,0,0,.39.4,1.382,1.382,0,0,0,0,1.364v58.85a1.382,1.382,0,0,0,.389.965,1.312,1.312,0,0,0,.94.4h30.59a1.312,1.312,0,0,0,.94-.4,1.382,1.382,0,0,0,.39-.965V1.365A1.382,1.382,0,0,0,32.86.4a1.312,1.312,0,0,0-.94-.4Z" transform="translate(23.071 2.737)"/><rect class="k" width="7.464" height="0.684" rx="0.342" transform="translate(35.963 3.421)"/><ellipse class="k" cx="0.339" cy="0.342" rx="0.339" ry="0.342" transform="translate(44.784 3.421)"/><path class="l" d="M10.823,30.672h0c-2.539.58-4.282-1.055-4.869-3.56L.12,5.727A4.689,4.689,0,0,1,3.669.118h0a4.754,4.754,0,0,1,5.682,3.5l4.761,21.937A4.045,4.045,0,0,1,10.823,30.672Z" transform="translate(53.606 28.737)"/><rect class="m" width="33.249" height="7.526" transform="translate(33.249 78)"/><rect class="n" width="31.892" height="6.158" transform="translate(33.928 78.684)"/><path class="o" d="M16.313,11.739h0a4.329,4.329,0,0,1-5.877,1.307L1.987,7.7A4.13,4.13,0,0,1,.651,1.945h0A4.329,4.329,0,0,1,6.528.637l8.449,5.35a4.13,4.13,0,0,1,1.336,5.752Z" transform="translate(13.571 34.895)"/><path class="p" d="M12.927,10.325h0a4.205,4.205,0,0,1-5.821,1.338L1.968,7.876A4.308,4.308,0,0,1,.645,1.99h0A4.205,4.205,0,0,1,6.466.652L11.6,4.441a4.308,4.308,0,0,1,1.323,5.885Z" transform="translate(14.928 47.21)"/><g class="q" transform="translate(29.922 22.585)"><ellipse class="r" cx="10.115" cy="10.256" rx="10.115" ry="10.256" transform="translate(0 0)"/></g><ellipse class="s" cx="9.5" cy="9.579" rx="9.5" ry="9.579" transform="translate(30.535 23.263)"/><path class="i" d="M1.527,4.1,5.191,7.33,10.381,0l1.833,1.466-7.023,8.8L0,4.692,1.527,4.1Z" transform="translate(33.928 27.368)"/><path class="f" d="M12.283,9.178h0a4.159,4.159,0,0,1-5.531,1.19L1.87,7A3.688,3.688,0,0,1,.613,1.769h0A4.159,4.159,0,0,1,6.144.58l4.881,3.37a3.688,3.688,0,0,1,1.258,5.228Z" transform="translate(14.25 48.579)"/><path class="f" d="M15.66,11.153h0a4.183,4.183,0,0,1-5.642,1.242L1.907,7.311A3.9,3.9,0,0,1,.625,1.847h0A4.183,4.183,0,0,1,6.267.605l8.111,5.083A3.9,3.9,0,0,1,15.66,11.153Z" transform="translate(13.571 35.579)"/><path class="t" d="M19.01,13.714h0a4.408,4.408,0,0,1-6.032,1.36L2.039,8.007A4.332,4.332,0,0,1,.668,2.023h0A4.408,4.408,0,0,1,6.7.663L17.639,7.729A4.332,4.332,0,0,1,19.01,13.714Z" transform="translate(12.892 21.21)"/><path class="f" d="M17.7,12.521h0a4.151,4.151,0,0,1-5.616,1.242L1.9,7.311A3.911,3.911,0,0,1,.622,1.847h0A4.151,4.151,0,0,1,6.238.605L16.422,7.058A3.911,3.911,0,0,1,17.7,12.521Z" transform="translate(13.571 21.895)"/></g></svg>