<svg xmlns="http://www.w3.org/2000/svg" xmlns:xlink="http://www.w3.org/1999/xlink" width="101.104" height="101.947" viewBox="0 0 101.104 101.947"><defs><style>.a,.g{fill:none;}.b{fill:rgba(0,0,0,0);}.c{clip-path:url(#a);}.d{fill:#f5f5f5;}.e,.j,.k{opacity:0.1;}.f{fill:#3ad29f;}.g{stroke:#fff;stroke-linecap:round;stroke-miterlimit:10;stroke-width:7px;}.h{opacity:0.4;}.i{opacity:0.3;}.j,.q{fill:#fea097;}.k{fill:#fff;}.l,.t,.u,.v{opacity:0.5;}.m{fill:url(#b);}.n{fill:#fda57d;}.o,.u{fill:#f55f44;}.p{opacity:0.05;}.r{fill:#333;}.s,.v{fill:#47e6b1;}.t{fill:#4d8af0;}</style><clipPath id="a"><circle class="a" cx="50.552" cy="50.552" r="50.552"/></clipPath><linearGradient id="b" y1="0.5" x2="1" y2="0.5" gradientUnits="objectBoundingBox"><stop offset="0" stop-color="gray" stop-opacity="0.251"/><stop offset="0.54" stop-color="gray" stop-opacity="0.122"/><stop offset="1" stop-color="gray" stop-opacity="0.102"/></linearGradient></defs><rect class="b" width="101.104" height="101.947"/><circle class="a" cx="50.552" cy="50.552" r="50.552"/><g transform="translate(18.321 2.737)"><path class="d" d="M6.786,1.964.393,0,0,8.886l6.727,2.061.059-8.983Z" transform="translate(57.677 12.316)"/><path class="d" d="M0,0V8.944L40.3,20.526l.415-8.79L0,0Z" transform="translate(17.642)"/><path class="e" d="M6.786,1.964.393,0,0,8.886l6.727,2.061.059-8.983Z" transform="translate(57.677 12.316)"/><path class="f" d="M6.786,1.964.393,0,0,8.886l6.727,2.061.059-8.983Z" transform="translate(57.677 29.421)"/><path class="f" d="M0,0V8.944L40.3,20.526l.415-8.79L0,0Z" transform="translate(17.642 17.105)"/><path class="e" d="M6.786,1.964.393,0,0,8.886l6.727,2.061.059-8.983Z" transform="translate(57.677 29.421)"/><path class="g" d="M0,1.1,1.13,2.737,3.393,0" transform="translate(59.713 33.526)"/><g class="h" transform="translate(59.149 15.769)"><path class="g" d="M0,0,2.621,3.324" transform="translate(0 0)"/><path class="g" d="M3.276,0,0,2.374" transform="translate(0 0.475)"/></g><path class="d" d="M6.786,1.964.393,0,0,8.886l6.727,2.061.059-8.983Z" transform="translate(57.677 46.526)"/><path class="d" d="M0,0V8.944L40.3,20.526l.415-8.79L0,0Z" transform="translate(17.642 34.21)"/><path class="e" d="M6.786,1.964.393,0,0,8.886l6.727,2.061.059-8.983Z" transform="translate(57.677 46.526)"/><g class="h" transform="translate(59.149 49.333)"><path class="g" d="M0,0,2.621,3.324" transform="translate(0 0)"/><path class="g" d="M3.276,0,0,2.374" transform="translate(0 0.475)"/></g><ellipse class="i" cx="1.696" cy="2.737" rx="1.696" ry="2.737" transform="translate(43.427 27.368)"/><ellipse class="j" cx="11.535" cy="22.921" rx="11.535" ry="22.921" transform="translate(33.249 6.842)"/><ellipse class="k" cx="6.446" cy="13" rx="6.446" ry="13" transform="translate(38.677 17.105)"/><g class="l" transform="translate(7.485 14.369)"><path class="m" d="M39.266,15.829c-.561-1.681-3.9.591-3.9.591l-.274.369L29.17,24.8,14.649,16.684V13.057A5.04,5.04,0,0,0,19.063,7.19a5.45,5.45,0,0,0,1.874-1.475,2.774,2.774,0,0,0,.995-1.9,1.323,1.323,0,0,0-.02-.342,1.825,1.825,0,0,0-1.24-1.254,12.517,12.517,0,0,0-1.807-.369A43.607,43.607,0,0,1,14.724.389,9.429,9.429,0,0,0,12.767.021,2.853,2.853,0,0,0,11.36.177a4.834,4.834,0,0,0-1.207.993A5.49,5.49,0,0,1,8.572,2.2,15.394,15.394,0,0,0,5.944,3.24a1.55,1.55,0,0,0-.53.531,1.442,1.442,0,0,0-.141.755,3.782,3.782,0,0,0,.052.683A7.642,7.642,0,0,0,6.109,8a7.911,7.911,0,0,0,1.58,1.775l1.317,1.207a2.93,2.93,0,0,0,.906.67.678.678,0,0,1,.2-.492L9.69,14.143a8.646,8.646,0,0,0-2.455-.387,3.152,3.152,0,0,0-2.748.953,1.059,1.059,0,0,0-.075.145c-1.546,1.834-5.089,7.773-3.006,22.2-.178,1.765-.285,2.882-.285,2.882l.012.177-.012.134.025.02L2.306,56.19.063,71.886h.5V73.63H0v2.8s7.79-.5,8.978-2.242c.984-1.447-3.913-.879-5.609-.643V72.474H3.4v-.591h.592l2.243-10.65C8.54,57.249,7.358,47.278,7.358,47.278l2.8,1.681L12.4,60.675l-1.68,17.377h.5v1.214h-.654v2.8s7.79-.5,8.978-2.242c.984-1.447-3.911-.879-5.607-.643l-.188-1.132h.343l2.246-15.7c1.107-4.253-.4-16.731-.6-18.329L18.512,25.67l-.039-.053.039-.259L29.73,29.283s1.122,1.121,2.275-2.212a38.729,38.729,0,0,1,4.415-7.822l.041-.057S39.827,17.511,39.266,15.829Z" transform="translate(0 0)"/></g><path class="n" d="M0,.977V3.421H3.393V0L0,.977Z" transform="translate(8.143 83.473)"/><path class="n" d="M0,.489V3.421l3.393-.489L2.714,0,0,.489Z" transform="translate(18.321 89.631)"/><path class="o" d="M4.071,0S-2.253,4.874.863,23.947Z" transform="translate(9.5 29.421)"/><path class="p" d="M4.071,0S-2.253,4.874.863,23.947Z" transform="translate(9.5 29.421)"/><path class="p" d="M2.714,1.368,2.413,0,0,.456v.912Z" transform="translate(18.999 90.315)"/><path class="p" d="M0,1.368H3.393V0L0,.913v.456Z" transform="translate(8.143 84.157)"/><path class="n" d="M.528,0,0,3.593,4.75,6.158V1.026L.528,0Z" transform="translate(16.964 26.684)"/><path class="q" d="M0,30.971,2.193,15.757,1.035,0l14.25,3.8s1.761,13.523.608,17.93L13.7,36.947H10.413L12.057,20.1,9.865,8.75,7.124,7.124s1.158,9.665-1.1,13.523L3.842,30.971Z" transform="translate(8.143 54.737)"/><path class="n" d="M4.011.525c-.539-1.424-3.747.5-3.747.5L0,1.34,1.273,3.421l.04-.048S4.55,1.948,4.011.525Z" transform="translate(42.07 30.789)"/><path class="p" d="M8.755.38S4.378-.765,3.284.922,0,25.322,0,25.322s6.506,5.421,14.227,3.795l2.737-17.889Z" transform="translate(8.821 29.421)"/><path class="o" d="M26.955,10.676,9.916,1.1A8.469,8.469,0,0,0,5.875,0a3.018,3.018,0,0,0-2.64.921C2.157,2.608,0,25.321,0,25.321s6.409,5.422,14.016,3.8l2.7-17.9,10.782,3.8s1.078,1.084,2.185-2.139A37.378,37.378,0,0,1,33.928,5.3L32.656,2.927Z" transform="translate(8.821 28.737)"/><path class="p" d="M0,.379A4.235,4.235,0,0,0,3.568,2.737a3.389,3.389,0,0,0,.5-.039V1.368L.04,0Z" transform="translate(17.642 26)"/><ellipse class="n" cx="4.75" cy="4.789" rx="4.75" ry="4.789" transform="translate(16.964 18.474)"/><path class="r" d="M0,.42v3s7.548-.534,8.7-2.4S2.718.42,2.718.42Z" transform="translate(7.464 86.894)"/><path class="r" d="M0,.42v3s7.548-.534,8.7-2.4S2.718.42,2.718.42Z" transform="translate(18.999 92.368)"/><path class="p" d="M5.488,9.707,7.416,7.014a4.61,4.61,0,0,1,.977-1.1,1.625,1.625,0,0,1,1.4-.3,2.888,2.888,0,0,1,.768.455A3.4,3.4,0,0,0,13.05,6.8a4.437,4.437,0,0,0,2.26-1.523c.529-.549,1.1-1.224.953-1.965a1.764,1.764,0,0,0-1.212-1.2,11.857,11.857,0,0,0-1.765-.347C11.88,1.5,10.609.787,9.237.381A9.406,9.406,0,0,0,7.324.02,2.848,2.848,0,0,0,5.95.169a4.575,4.575,0,0,0-1.179.948A5.38,5.38,0,0,1,3.226,2.1a15.612,15.612,0,0,0-2.568.994A1.5,1.5,0,0,0,.141,3.6a1.9,1.9,0,0,0-.088,1.2A7.156,7.156,0,0,0,.819,7.46,7.582,7.582,0,0,0,2.365,9.154l1.287,1.153a2.879,2.879,0,0,0,.886.64C4.477,10.533,5.245,10.051,5.488,9.707Z" transform="translate(12.892 15.737)"/><path class="r" d="M5.488,9.706,7.416,7.014a4.609,4.609,0,0,1,.977-1.1,1.625,1.625,0,0,1,1.4-.3,2.888,2.888,0,0,1,.768.455A3.4,3.4,0,0,0,13.05,6.8a4.437,4.437,0,0,0,2.26-1.523c.529-.549,1.1-1.224.953-1.965a1.764,1.764,0,0,0-1.212-1.2,11.859,11.859,0,0,0-1.765-.347C11.88,1.5,10.609.787,9.237.381A9.407,9.407,0,0,0,7.324.02,2.848,2.848,0,0,0,5.95.169a4.575,4.575,0,0,0-1.179.948A5.38,5.38,0,0,1,3.226,2.1a15.613,15.613,0,0,0-2.568.994A1.5,1.5,0,0,0,.141,3.6,1.9,1.9,0,0,0,.053,4.8,7.155,7.155,0,0,0,.819,7.461,7.581,7.581,0,0,0,2.365,9.155l1.287,1.153a2.879,2.879,0,0,0,.886.64C4.477,10.533,5.245,10.045,5.488,9.706Z" transform="translate(12.892 15.737)"/><g class="l" transform="translate(0 13.728)"><rect class="s" width="0.223" height="1.276" transform="translate(0.52 0)"/><path class="s" d="M0,0H.225V1.265H0Z" transform="translate(1.265 0.525) rotate(90)"/></g><g class="l" transform="translate(63.784 63.675)"><rect class="s" width="0.223" height="1.276" transform="translate(0.52 0)"/><path class="s" d="M0,0H.225V1.265H0Z" transform="translate(1.265 0.525) rotate(90)"/></g><g class="l" transform="translate(60.473 41.773)"><rect class="s" width="0.223" height="1.276" transform="translate(0.52 0)"/><path class="s" d="M0,0H.225V1.265H0Z" transform="translate(1.265 0.525) rotate(90)"/></g><g class="l" transform="translate(51.627 63.081)"><rect class="s" width="0.223" height="1.148" transform="translate(0.52 0)"/><path class="s" d="M0,0H.2V1.265H0Z" transform="translate(1.265 0.472) rotate(90)"/></g><g class="l" transform="translate(46.272 75.956)"><rect class="s" width="0.201" height="1.276" transform="translate(0.47 0)"/><path class="s" d="M0,0H.225V1.139H0Z" transform="translate(1.139 0.526) rotate(90)"/></g><g class="l" transform="translate(8.167 29.432)"><rect class="s" width="0.223" height="1.276" transform="translate(0.522 0)"/><path class="s" d="M0,0H.225V1.265H0Z" transform="translate(1.265 0.526) rotate(90)"/></g><path class="t" d="M1.247.692A.376.376,0,0,1,1.042.239a.182.182,0,0,0,0-.041h0A.188.188,0,0,0,.92.012.186.186,0,0,0,.707.073h0A.181.181,0,0,0,.687.111a.371.371,0,0,1-.45.207H.2A.187.187,0,0,0,.012.441.189.189,0,0,0,.073.655h0A.178.178,0,0,0,.11.676a.376.376,0,0,1,.205.453.182.182,0,0,0,0,.041h0a.188.188,0,0,0,.122.186A.186.186,0,0,0,.65,1.295h0A.181.181,0,0,0,.67,1.258a.371.371,0,0,1,.45-.207h.041A.187.187,0,0,0,1.346.928.189.189,0,0,0,1.284.713h0A.178.178,0,0,0,1.247.692Z" transform="translate(10.178 13.684)"/><path class="t" d="M1.247.692A.376.376,0,0,1,1.042.239a.182.182,0,0,0,0-.041h0A.188.188,0,0,0,.92.012.186.186,0,0,0,.707.073h0A.181.181,0,0,0,.687.111a.371.371,0,0,1-.45.207H.2A.187.187,0,0,0,.012.441.189.189,0,0,0,.073.655h0A.178.178,0,0,0,.11.676a.376.376,0,0,1,.205.453.182.182,0,0,0,0,.041h0a.188.188,0,0,0,.122.186A.186.186,0,0,0,.65,1.295h0A.181.181,0,0,0,.67,1.258a.371.371,0,0,1,.45-.207h.041A.187.187,0,0,0,1.346.928.189.189,0,0,0,1.284.713h0A.178.178,0,0,0,1.247.692Z" transform="translate(50.891 3.421)"/><path class="t" d="M1.247.692A.376.376,0,0,1,1.042.239a.182.182,0,0,0,0-.041h0A.188.188,0,0,0,.92.012.186.186,0,0,0,.707.073h0A.181.181,0,0,0,.687.111a.371.371,0,0,1-.45.207H.2A.187.187,0,0,0,.012.441.189.189,0,0,0,.073.655h0A.178.178,0,0,0,.11.676a.376.376,0,0,1,.205.453.182.182,0,0,0,0,.041h0a.188.188,0,0,0,.122.186A.186.186,0,0,0,.65,1.295h0A.181.181,0,0,0,.67,1.258a.371.371,0,0,1,.45-.207h.041A.187.187,0,0,0,1.346.928.189.189,0,0,0,1.284.713h0A.178.178,0,0,0,1.247.692Z" transform="translate(0.679 36.263)"/><path class="t" d="M1.247.692A.376.376,0,0,1,1.042.239a.182.182,0,0,0,0-.041h0A.188.188,0,0,0,.92.012.186.186,0,0,0,.707.073h0A.181.181,0,0,0,.687.111a.371.371,0,0,1-.45.207H.2A.187.187,0,0,0,.012.441.189.189,0,0,0,.073.655h0A.178.178,0,0,0,.11.676a.376.376,0,0,1,.205.453.182.182,0,0,0,0,.041h0a.188.188,0,0,0,.122.186A.186.186,0,0,0,.65,1.295h0A.181.181,0,0,0,.67,1.258a.371.371,0,0,1,.45-.207h.041A.187.187,0,0,0,1.346.928.189.189,0,0,0,1.284.713h0A.178.178,0,0,0,1.247.692Z" transform="translate(2.714 58.842)"/><ellipse class="u" cx="0.679" cy="0.684" rx="0.679" ry="0.684" transform="translate(29.856 15.737)"/><ellipse class="t" cx="0.679" cy="0.684" rx="0.679" ry="0.684" transform="translate(40.035 63.631)"/><ellipse class="t" cx="0.679" cy="0.684" rx="0.679" ry="0.684" transform="translate(61.748 25.316)"/><ellipse class="v" cx="0.679" cy="0.684" rx="0.679" ry="0.684" transform="translate(67.855 41.737)"/><ellipse class="u" cx="0.679" cy="0.684" rx="0.679" ry="0.684" transform="translate(43.427 0.684)"/></g></svg>