<svg xmlns="http://www.w3.org/2000/svg" xmlns:xlink="http://www.w3.org/1999/xlink" width="101.415" height="102.26" viewBox="0 0 101.415 102.26"><defs><style>.a{fill:none;}.b{fill:rgba(0,0,0,0);}.c{clip-path:url(#a);}.d{opacity:0.5;}.e{fill:url(#b);}.f{fill:#fff;}.g{fill:url(#d);}.h{fill:#fea097;}.i{fill:url(#e);}.j{fill:url(#f);}.k{fill:#69f0ae;}.l{fill:#e0e0e0;}.m{fill:url(#g);}.n{fill:#be7c5e;}.o{fill:#fda57d;}.p{fill:#333;}.q{fill:#4d8af0;}</style><clipPath id="a"><circle class="a" cx="50.707" cy="50.707" r="50.707"/></clipPath><linearGradient id="b" x1="0.5" y1="1" x2="0.5" gradientUnits="objectBoundingBox"><stop offset="0" stop-color="gray" stop-opacity="0.251"/><stop offset="0.54" stop-color="gray" stop-opacity="0.122"/><stop offset="1" stop-color="gray" stop-opacity="0.102"/></linearGradient><linearGradient id="d" x1="0.711" y1="0.957" x2="0.288" y2="0.044" xlink:href="#b"/><linearGradient id="e" x1="0.5" x2="0.5" y2="0" xlink:href="#b"/><linearGradient id="f" x1="0.5" x2="0.5" y2="0" xlink:href="#b"/><linearGradient id="g" x1="0.82" y1="0.968" x2="0.363" y2="0.149" xlink:href="#b"/></defs><rect class="b" width="101.415" height="102.26"/><circle class="a" cx="50.707" cy="50.707" r="50.707"/><g transform="translate(5.445 8.566)"><g class="d" transform="translate(7.783 0)"><path class="e" d="M.354.256,53.165,0l-.354,73.583L0,73.839Z" transform="translate(0 22.064) rotate(-24.52)"/></g><path class="f" d="M.283.2,51.85,0l-.283,71.985L0,72.19Z" transform="translate(8.234 22.294) rotate(-24.52)"/><path class="e" d="M.025.1,25.606,0l-.025,6.239L0,6.341Z" transform="translate(19.591 15.08) rotate(-24.52)"/><path class="g" d="M3.468,6.863h0A3.482,3.482,0,0,1,.322,4.828,3.438,3.438,0,0,1,.214,2.182,3.331,3.331,0,0,1,3.342,0,3.481,3.481,0,0,1,6.487,2.035a3.438,3.438,0,0,1,.107,2.646A3.331,3.331,0,0,1,3.468,6.863Zm-.106-5.4-.083,0a1.992,1.992,0,0,0-1.8,1.313,1.97,1.97,0,0,0,.545,2.152,2.014,2.014,0,0,0,2.213.311,1.957,1.957,0,0,0,.948-2.614A2.008,2.008,0,0,0,3.362,1.463Z" transform="translate(27.224 4.474)"/><path class="h" d="M.023.1,25.066,0l-.023,5.965L0,6.064Z" transform="translate(19.839 14.973) rotate(-24.52)"/><path class="h" d="M3.4,6.863h0a3.367,3.367,0,0,1-1.19-.217A3.442,3.442,0,0,1,1.992.31,3.351,3.351,0,0,1,3.4,0,3.435,3.435,0,0,1,5.893,5.771,3.4,3.4,0,0,1,3.4,6.863Zm0-5.411a1.932,1.932,0,0,0-.813.179A1.959,1.959,0,0,0,1.565,2.739a1.979,1.979,0,0,0,1.84,2.672,1.933,1.933,0,0,0,.813-.179A1.99,1.99,0,0,0,5.19,2.61,1.968,1.968,0,0,0,3.4,1.452Z" transform="translate(27.225 4.474)"/><path class="i" d="M.035.035,11.085,0,11.05,11.126,0,11.16Z" transform="translate(15.516 31.953) rotate(-24.52)"/><path class="j" d="M.035.035,11.085,0,11.05,11.126,0,11.16Z" transform="translate(24.614 52.016) rotate(-24.52)"/><path class="k" d="M.032.032,10.273,0l-.032,10.311L0,10.343Z" transform="translate(16.054 32.156) rotate(-24.52)"/><path class="h" d="M.032.032,10.273,0l-.032,10.311L0,10.343Z" transform="translate(25.034 52.049) rotate(-24.52)"/><path class="l" d="M0,.056,14.029,0l0,.985L0,1.041Z" transform="translate(32.797 27.925) rotate(-24.52)"/><path class="l" d="M0,.092,23.162,0l0,.985L0,1.077Z" transform="translate(33.391 29.239) rotate(-24.52)"/><path class="l" d="M0,.085,21.531,0l0,.985L0,1.071Z" transform="translate(34 30.592) rotate(-24.52)"/><path class="l" d="M0,.056,14.029,0l0,.985L0,1.041Z" transform="translate(41.777 47.818) rotate(-24.52)"/><path class="l" d="M0,.092,23.162,0l0,.985L0,1.077Z" transform="translate(42.371 49.132) rotate(-24.52)"/><path class="l" d="M0,.085,21.531,0l0,.985L0,1.071Z" transform="translate(42.981 50.485) rotate(-24.52)"/><path class="m" d="M.556,3.5l2.318.71L3.636,0,4.764.291,3.5,5.49,0,4.046.556,3.5Z" transform="translate(19.738 31.24)"/><path class="f" d="M.477,3.06l1.987.62L3.117,0l.966.255L3,4.8,0,3.541.477,3.06Z" transform="translate(19.738 31.926)"/><path class="f" d="M.477,3.06l1.987.62L3.117,0l.966.255L3,4.8,0,3.541.477,3.06Z" transform="translate(29.267 52.515)"/><path class="l" d="M.043.13,32.761,0l-.043,10.981L0,11.11Z" transform="translate(39.995 69.163) rotate(-24.52)"/><path class="h" d="M3.491,10.295c-.039,0-.079,0-.119-.006a1.111,1.111,0,0,1-.868-.6,1.756,1.756,0,0,1-.069-1.55,2.011,2.011,0,0,1,.178-.3l-.057-.022A3.229,3.229,0,0,0,1.475,7.6,1.9,1.9,0,0,0,.5,7.861a.33.33,0,0,1-.168.05A.357.357,0,0,1,.016,7.62.416.416,0,0,1,.2,7.142a2.677,2.677,0,0,1,1.353-.334,3.788,3.788,0,0,1,1.707.417,4.018,4.018,0,0,1,.428-.256c.179-.093.374-.174.563-.253.143-.06.3-.123.441-.192a2.61,2.61,0,0,1-1.3-1.959A1.909,1.909,0,0,1,4.945,2.42a1.519,1.519,0,0,1,.166-.01,1.388,1.388,0,0,1,1.151.655,2.626,2.626,0,0,1,.429,1.387A2.9,2.9,0,0,1,6.2,6.208h.018a2.422,2.422,0,0,0,.273.021l.037,0c.095,0,.2.009.3.009.338,0,.807-.047.977-.453a2.378,2.378,0,0,0,.129-.626c.01-.09.021-.182.036-.269a5.692,5.692,0,0,1,.575-1.877,2.173,2.173,0,0,1,1.88-1.2,2.3,2.3,0,0,1,1.006.243c.124.06.258.138.4.221l.031.018a2.745,2.745,0,0,0,1.267.5.881.881,0,0,0,.409-.1c.361-.186.451-.662.529-1.082.023-.123.045-.239.072-.343A1.526,1.526,0,0,1,15.738,0a3.6,3.6,0,0,1,1.038.175.331.331,0,0,1,.235.387.414.414,0,0,1-.382.372.379.379,0,0,1-.11-.017L16.474.9a2.848,2.848,0,0,0-.8-.162.766.766,0,0,0-.549.192,1.394,1.394,0,0,0-.314.725l-.013.06c-.013.054-.025.109-.037.165a2.432,2.432,0,0,1-.567,1.3,1.413,1.413,0,0,1-1.018.385,2.36,2.36,0,0,1-.715-.119,4.067,4.067,0,0,1-.805-.395,3.015,3.015,0,0,0-1.09-.461,1.567,1.567,0,0,0-.211-.015c-1.169,0-1.431,1.418-1.642,2.558v0c-.053.287-.1.558-.163.778A1.692,1.692,0,0,1,6.721,7.046,4.916,4.916,0,0,1,5.6,6.9l-.051-.014a3.657,3.657,0,0,1-.7.418c-.108.049-.218.1-.339.146-.176.073-.376.156-.562.253.03.026.059.056.094.091a1.933,1.933,0,0,1,.338,1.9A.916.916,0,0,1,3.491,10.295Zm-.2-2.1h0a1.472,1.472,0,0,0-.1.124.824.824,0,0,0-.1.86c.071.148.2.307.361.307a.3.3,0,0,0,.216-.109h0a.575.575,0,0,0,.182-.46A1.193,1.193,0,0,0,3.288,8.2ZM4.449,3.5a1.127,1.127,0,0,0-.33.824,1.856,1.856,0,0,0,.574,1.263,2.1,2.1,0,0,0,.725.443,1.624,1.624,0,0,0,.168-.2,2.294,2.294,0,0,0,.23-2.057.83.83,0,0,0-.744-.551.894.894,0,0,0-.622.282Z" transform="translate(48.325 62.81)"/><path class="e" d="M71.678,14.8l-8.319,3.285a23.654,23.654,0,0,1-8.123-2.108,12.713,12.713,0,0,0-11.337.087c-8.142.2-12.623-.859-15.014-1.859l.631-1.311L21.082,9.569,0,0V39.218l7.378,3.329,3.958-9.615L20.027,37,21.7,32.71,27.4,37l.389.331-.535.563a2.85,2.85,0,0,0,0,3.884h0a2.518,2.518,0,0,0,3.69,0l-.293.313a2.85,2.85,0,0,0,0,3.884h0a2.518,2.518,0,0,0,3.69,0l1.69-1.78h0l-1.16,1.221a2.85,2.85,0,0,0,0,3.884h0a2.518,2.518,0,0,0,3.69,0L40.23,47.54h0l-.7.739a1.991,1.991,0,0,0,0,2.714,1.758,1.758,0,0,0,2.577,0l1.113-1.171a23.335,23.335,0,0,0,4.216,2.714c3.157,1.108,3.157-1.112,3.157-1.112,4.216,2.219,6.325-2.219,6.325-2.219,5.271,2.219,5.271-3.329,5.271-3.329a1.933,1.933,0,0,0,2.931-.313,3.654,3.654,0,0,0,.394-3.913l5.038-4.714,2.179,4.511,8.691-4.07,3.958,8.885,5.828-2.635V4.818Z" transform="translate(0 7.905)"/><path class="n" d="M16.335,9.084,7.146,17.158,0,4.037,16.335,0V9.084Z" transform="translate(54.451 33.985)"/><path class="o" d="M6.1,0s2.936,4.086,20.33,3.064L36.593,18.387l6.812,7.7a3.269,3.269,0,0,1,.08,4.273,1.921,1.921,0,0,1-2.826.284s0,5.107-5.082,3.064c0,0-2.033,4.086-6.1,2.043,0,0,0,2.043-3.049,1.021s-19.314-14.3-19.314-14.3L0,17.367Z" transform="translate(20.419 22.318)"/><path class="n" d="M26.54,3.225a23.4,23.4,0,0,1-8.774-2.016A12.621,12.621,0,0,0,5.52,2.015,11.81,11.81,0,0,0,0,12.577s3.97,4.156,8.167-4.156H11.23s2.949,10.391,11.231,9.35,10.21-2.078,10.21-2.078Z" transform="translate(37.435 23.69)"/><path class="n" d="M0,3.524A3.9,3.9,0,0,1,3.527,0h0l.03,5.8L3.543,2.254A3.9,3.9,0,0,1,.016,5.778h0Z" transform="translate(42.015 52.243) rotate(45)"/><path class="f" d="M18.377,21.907,9.189,26.08,0,3.129,8.168,0,18.377,21.907Z" transform="translate(61.938 23.69)"/><path class="f" d="M0,21.907,9.188,26.08,18.377,3.13,10.209,0,0,21.907Z" transform="translate(10.89 18.2)"/><path class="p" d="M0,0,20.419,9.344,7.147,40.492,0,37.378V0Z" transform="translate(0.681 9.964)"/><path class="q" d="M20.419,0,0,9.345,13.273,40.492l7.146-3.115V0Z" transform="translate(70.786 14.768)"/></g></svg>