<svg xmlns="http://www.w3.org/2000/svg" width="496.267" height="496.292" viewBox="0 0 496.267 496.292"><defs><style>.a{fill:#c7cce1;}.b{fill:#9ca3c2;}.c{fill:#fff;}.d{fill:#d6d6d6;}.e{fill:#f9dc26;}.f{fill:#f2bc0e;}.g{fill:#e6e6e6;}.h{fill:#f7f7f7;}</style></defs><g transform="matrix(0.174, -0.985, 0.985, 0.174, -0.232, 421.898)"><path class="a" d="M185.813,102.97c-23.189-18.277-45.093-33.525-65.094-45.308l13.6-23.069c21.019,12.385,43.928,28.3,68.071,47.344Zm0,0" transform="translate(-20.181 -5.746)"/><path class="a" d="M435.43,364.783a643.306,643.306,0,0,0-37.477-52.325l21.035-16.575c14.968,19.012,28.1,37.354,39.029,54.521Zm0,0" transform="translate(-66.526 -49.426)"/><path class="b" d="M428.869,354.809a172.906,172.906,0,0,0,13.709-27.3q-10.882-15.425-23.589-31.625l-21.035,16.575C409.509,327.12,419.831,341.3,428.869,354.809Zm0,0" transform="translate(-66.526 -49.426)"/><path class="b" d="M190.371,107.741l16.579-21.019c-10.833-8.543-21.358-16.348-31.641-23.593a173.352,173.352,0,0,0-27.324,13.725C161.518,85.9,175.643,96.133,190.371,107.741Zm0,0" transform="translate(-24.739 -10.516)"/><path class="c" d="M374.938,227.883A147.277,147.277,0,1,1,227.66,80.605,147.279,147.279,0,0,1,374.938,227.883Zm0,0" transform="translate(-13.438 -13.438)"/><path class="d" d="M227.66,375.258c-76.692,0-139.808-58.939-146.594-133.89-.4,4.418-.683,8.865-.683,13.39,0,81.2,66.073,147.277,147.277,147.277s147.277-66.073,147.277-147.277c0-4.525-.283-8.972-.683-13.39C367.465,316.319,304.352,375.258,227.66,375.258Zm0,0" transform="translate(-13.438 -40.312)"/><path class="e" d="M492.945,53.778A53.556,53.556,0,1,1,439.387.223,53.556,53.556,0,0,1,492.945,53.778Zm0,0" transform="translate(-64.5 0)"/><path class="f" d="M439.387,88.618a53.493,53.493,0,0,1-51.652-40.165,52.681,52.681,0,0,0-1.9,13.387,53.556,53.556,0,0,0,107.113,0,52.681,52.681,0,0,0-1.9-13.387A53.494,53.494,0,0,1,439.387,88.618Zm0,0" transform="translate(-64.5 -8.063)"/><path class="g" d="M350.945,272.153a46.861,46.861,0,1,1-46.863-46.86A46.861,46.861,0,0,1,350.945,272.153Zm0,0" transform="translate(-43 -37.625)"/><path class="h" d="M145.384,113.821a66.125,66.125,0,0,0-.7,6.949,66.944,66.944,0,1,0,122.494-37.3,146.688,146.688,0,0,0-121.8,30.353Zm0,0" transform="translate(-24.187 -13.438)"/><path class="a" d="M391.658,428.614c-19.855,0-46.889-10.228-80.843-30.646C263.968,369.8,209.1,325.184,156.283,272.381S58.877,164.692,30.695,117.845C-1.317,64.638-8.3,28.407,9.942,10.173,29.4-9.256,69.015-.179,127.7,37.165L113.317,59.752C55.637,23.065,32.835,25.209,28.886,29.1,15.645,42.344,55.3,133.522,175.226,253.447S386.316,413.07,399.57,399.787c3.923-3.923,6.067-26.735-30.659-84.428l22.6-14.379c37.354,58.695,46.43,98.313,26.992,117.741C411.9,425.322,402.93,428.614,391.658,428.614Zm0,0" transform="translate(-0.007 -0.002)"/></g></svg>