<svg xmlns="http://www.w3.org/2000/svg" width="1440" height="1024" viewBox="0 0 1440 1024"><defs><style>.a{fill:#fff8f7;}.b{fill:#6c9f9b;opacity:0.6;}</style></defs><rect class="a" width="1440" height="1024"/><circle class="b" cx="27" cy="27" r="27" transform="translate(156 212.5)"/><circle class="b" cx="27" cy="27" r="27" transform="translate(246 809.5)"/><circle class="b" cx="27" cy="27" r="27" transform="translate(1178 602.5) rotate(-90)"/><circle class="b" cx="19" cy="19" r="19" transform="translate(1199 932.5) rotate(-90)"/><circle class="b" cx="14" cy="14" r="14" transform="translate(72 287.5)"/><circle class="b" cx="8" cy="8" r="8" transform="translate(189 353.5)"/><circle class="b" cx="8" cy="8" r="8" transform="translate(378 886.5)"/><circle class="b" cx="8" cy="8" r="8" transform="translate(1024 188.5)"/><circle class="b" cx="8" cy="8" r="8" transform="translate(386 801.5)"/><circle class="b" cx="35" cy="35" r="35" transform="translate(908 185.5)"/><circle class="b" cx="8" cy="8" r="8" transform="translate(1274 528.5) rotate(-90)"/><circle class="b" cx="8" cy="8" r="8" transform="translate(1244 631.5) rotate(-90)"/><circle class="b" cx="8" cy="8" r="8" transform="translate(1257 969.5) rotate(-90)"/><circle class="b" cx="5" cy="5" r="5" transform="translate(1075 863.5) rotate(-90)"/></svg>