<svg xmlns="http://www.w3.org/2000/svg" width="14.694" height="14.695" viewBox="0 0 14.694 14.695"><defs><style>.a{fill:#6c9f9b;}</style></defs><g transform="translate(46.104 -3.895)"><g transform="translate(-9.104 2.896)"><path class="a" d="M8.347,5.826A.891.891,0,1,1,7.087,4.566L9.608,2.044A3.565,3.565,0,0,1,14.65,7.087L12.129,9.608a.891.891,0,0,1-1.261-1.261L13.39,5.826A1.783,1.783,0,1,0,10.868,3.3Zm0,5.042a.891.891,0,1,1,1.261,1.261L7.087,14.65A3.565,3.565,0,0,1,2.044,9.608L4.565,7.087A.891.891,0,1,1,5.826,8.347L3.3,10.868A1.783,1.783,0,0,0,5.826,13.39Zm2.521-5.042a.891.891,0,0,1,0,1.261L7.087,10.868A.891.891,0,0,1,5.826,9.608L9.608,5.826A.891.891,0,0,1,10.868,5.826Z" transform="translate(-38)"/></g></g></svg>