<svg xmlns="http://www.w3.org/2000/svg" xmlns:xlink="http://www.w3.org/1999/xlink" width="101.104" height="101.947" viewBox="0 0 101.104 101.947"><defs><style>.a{fill:none;}.b{fill:rgba(0,0,0,0);}.c{clip-path:url(#a);}.d{fill:url(#b);}.e{fill:#fea097;}.f{fill:#f5f5f5;}.g{fill:#fff;}.h{opacity:0.3;}.i{fill:url(#c);}</style><clipPath id="a"><circle class="a" cx="50.552" cy="50.552" r="50.552"/></clipPath><linearGradient id="b" x1="0.5" y1="1" x2="0.5" gradientUnits="objectBoundingBox"><stop offset="0" stop-color="gray" stop-opacity="0.251"/><stop offset="0.54" stop-color="gray" stop-opacity="0.122"/><stop offset="1" stop-color="gray" stop-opacity="0.102"/></linearGradient><linearGradient id="c" x1="0.499" y1="1" x2="0.501" y2="-0.001" gradientUnits="objectBoundingBox"><stop offset="0" stop-opacity="0.122"/><stop offset="0.55" stop-opacity="0.09"/><stop offset="1" stop-opacity="0.02"/></linearGradient></defs><rect class="b" width="101.104" height="101.947"/><circle class="a" cx="50.552" cy="50.552" r="50.552"/><g transform="translate(8.821 8.895)"><path class="d" d="M83.462,34.569c.007-3.145-.637-3.971-2.037-5.167L43.662.632a3.05,3.05,0,0,0-3.7-.015L2.869,28.579A6.647,6.647,0,0,0,.136,34.3H.1L0,77.369H0v1.918a4.726,4.726,0,0,0,1.352,3.325A4.611,4.611,0,0,0,4.63,83.995H6.459l35.175.079,37,.084a4.611,4.611,0,0,0,3.285-1.368,4.726,4.726,0,0,0,1.366-3.319l.1-44.908Z" transform="translate(0 0)"/><path class="e" d="M0,0,81.765,0v40.02a8.163,8.163,0,0,1-8.115,8.206l-65.68,0A8.015,8.015,0,0,1,0,40.169Z" transform="translate(0.794 34.55) rotate(0.13)"/><path class="f" d="M.092,0,0,41.967a6.424,6.424,0,0,0,6.383,6.46L76,48.579" transform="translate(0.679 34.21)"/><path class="g" d="M76,0l-.092,42.126a6.431,6.431,0,0,1-6.4,6.452L0,48.422" transform="translate(6.107 34.21)"/><path class="e" d="M38.915.611,2.67,28.281A6.606,6.606,0,0,0,0,33.943l81.426.267c.007-3.113-.622-3.93-1.992-5.114L42.528.622A2.955,2.955,0,0,0,38.915.611Z" transform="translate(1.357 1.368)"/><path class="h" d="M38.915.611,2.67,28.281A6.606,6.606,0,0,0,0,33.943l81.426.267c.007-3.113-.622-3.93-1.992-5.114L42.528.622A2.955,2.955,0,0,0,38.915.611Z" transform="translate(1.357 1.368)"/><path class="i" d="M54.963,7.875,45.024,0,21,30.726,8.085,20.619,0,30.993,18.791,45.484h0l4.659,3.779L54.963,7.875Z" transform="translate(18.999 3.421)"/><path class="g" d="M52.927,6.942,43.936,0,20.121,31.277,6.894,21.063,0,30.117,17.721,43.781h0l4.545,3.43L52.927,6.942Z" transform="translate(19.678 4.105)"/></g></svg>