<svg xmlns="http://www.w3.org/2000/svg" width="354.674" height="354.674" viewBox="0 0 354.674 354.674"><defs><style>.a{fill:#d3e2e1;}.b{fill:#6c9f9b;}.c{fill:#ffb84d;}.d{fill:#ff9a00;}.e{fill:#9a4c00;}.f{fill:#703700;}.g{fill:#ffdca8;}.h{fill:#ffc56e;}</style></defs><circle class="a" cx="177.337" cy="177.337" r="177.337"/><path class="b" d="M358.446,197.927A176.716,176.716,0,0,0,309.955,76.088q-.418-.442-.838-.883-1.069-1.115-2.158-2.21c-.208-.209-.414-.42-.622-.629q-2.748-2.741-5.615-5.358l-51.906,41.807a15.169,15.169,0,0,1-10.689,3.505c-13.328-1.205-34.5-3.706-45.366-4.593a32.156,32.156,0,0,0-11.652,1.011,32.156,32.156,0,0,0-11.652-1.011c-10.869.887-32.038,3.387-45.366,4.593a15.169,15.169,0,0,1-10.689-3.505L61.5,67.008a177.435,177.435,0,0,0-49.221,76.551l83.179,84.387a30.25,30.25,0,0,0,7.412,12.238c7.5,7.911,22.728,22.825,32.032,32.447a15.2,15.2,0,0,1,3.969,10.516v87.042A177.44,177.44,0,0,0,358.446,197.927Z" transform="translate(-3.772 -20.59)"/><path class="c" d="M225.875,201.25a9.11,9.11,0,0,1-5.653,4.794,14.813,14.813,0,0,1-6.934.312c-.665-.118-1.358-.263-2.092-.457a36.158,36.158,0,0,1-8.742-3.782c-2.8-1.621-6.387-3.651-10.259-5.819-.436-.242-.873-.492-1.316-.734-1.815-1.018-3.685-2.05-5.549-3.083-1.42-.783-2.833-1.566-4.226-2.341-7.19-3.962-13.792-7.565-16.854-9.234a.147.147,0,0,0-.048-.021,1.149,1.149,0,0,0-.679-.152.4.4,0,0,0-.236.09c-.1.125-.035.686.526,1.136l.388.312,12.677,10.211,4.226,3.408,21.26,17.124,2.916,2.348,7.966,6.415c5.244,4.226,7.876,8.084,9.012,11.4a12.218,12.218,0,0,1,.45,6.733.007.007,0,0,0-.007.007,11.871,11.871,0,0,1-2.3,4.773,10.165,10.165,0,0,1-1.7,1.669v.007c-2.736,2.154-6.456,2.819-10.509,2.037a26.162,26.162,0,0,1-11.34-5.57l-9.49-7.648-6.262-5.043-21.26-17.124-8.832-7.114-4.184-3.374a1.053,1.053,0,0,0-1.067-.27c-.049.055-.049.4.27.776.748.88,1.732,2.009,2.889,3.325,2.189,2.494,5,5.66,8.008,9.005,6.636,7.412,14.18,15.746,17.914,19.819.339.374.651.707.921,1a82.222,82.222,0,0,1,5.341,6.338c4.2,5.6,6.013,10.155,5.639,14.021a9.082,9.082,0,0,1-3.921,6.636,12.615,12.615,0,0,1-1.718,1.067c-8.029,4.094-15.933-4.17-24.266-12.871-.907-.949-1.856-1.947-2.826-2.979-4.468-4.731-9.511-10.225-14.062-15.226-3.083-3.38-5.937-6.532-8.243-9.082-1.69-1.87-3.131-3.457-4.191-4.627a1.221,1.221,0,0,0-1.254-.45c-.035.021-.076.284.152.637,2.84,4.3,8.2,12.5,13.092,20.262v.007c1.392,2.21,2.743,4.385,3.99,6.428l.007.007c1.455,2.4,2.764,4.607,3.817,6.47,3.519,6.228,4.586,11.333,3.173,15.184a8.677,8.677,0,0,1-5.348,5.189c-8.888,3.3-15.039-4.239-26.947-22.236-8.3-12.545-16.286-23.345-23.3-32.239a332.548,332.548,0,0,0-25.305-29l-57.33-46.17A177.513,177.513,0,0,1,61.485,67L113.4,108.813a15.169,15.169,0,0,0,10.689,3.505c13.328-1.205,34.5-3.706,45.366-4.593a32.156,32.156,0,0,1,11.652,1.011,19.8,19.8,0,0,1,14.346,14.734,11,11,0,0,1-1.877,9.49,13.98,13.98,0,0,1-2.688,2.66,23.345,23.345,0,0,1-9.781,4.018,40.684,40.684,0,0,1-6.221.686c-2.681.1-6.692.409-10.682.755-2.521.222-5.029.457-7.2.665,2,1.219,4.447,2.722,7.2,4.413,4.932,3.034,10.841,6.685,16.9,10.467,3.256,2.03,6.56,4.094,9.781,6.124,2.113,1.337,4.184,2.653,6.193,3.928,6.809,4.343,12.788,8.25,16.494,10.869a55.625,55.625,0,0,1,5.84,4.69,35.359,35.359,0,0,1,3.387,3.609C227.981,192.286,227.586,197.564,225.875,201.25Z" transform="translate(-3.767 -20.588)"/><path class="d" d="M217.569,261.394a13.35,13.35,0,0,1-9.379,1.261,26.315,26.315,0,0,1-11.333-5.576l-9.49-7.648-6.117-4.925-.145-.118-7.675-6.186-26.6-21.426c-.52-.416-1.018-.339-1.074-.263-.042.048-.042.381.277.769,3.962,4.641,14.582,16.473,22.32,25.014,2.618,2.889,4.9,5.4,6.491,7.135.346.367.651.7.921,1a82.216,82.216,0,0,1,5.341,6.338l.145.187v.007c4.1,5.528,5.86,10.01,5.493,13.834a9.049,9.049,0,0,1-3.921,6.636,12.426,12.426,0,0,1-1.579,1c-.048.021-.09.048-.139.069-8.029,4.094-15.933-4.17-24.266-12.871q-1.361-1.424-2.819-2.972c-1.517-1.607-3.1-3.3-4.7-5.029-6.331-6.823-13.051-14.256-17.609-19.285-1.69-1.87-3.131-3.457-4.191-4.627a1.221,1.221,0,0,0-1.254-.45c-.035.021-.083.277.152.637,4.6,6.969,15.829,24.162,20.906,33.175,3.519,6.228,4.586,11.333,3.173,15.185a8.66,8.66,0,0,1-5.348,5.188c-8.888,3.3-15.039-4.239-26.947-22.236C93.149,227.361,71,205.346,69.59,203.967L12.26,157.8A176.791,176.791,0,0,1,33.818,113.38L181.1,232.023l.145.118,7.53,6.061,5.078,4.094,19.036,15.33Z" transform="translate(-3.767 -34.839)"/><path class="e" d="M404.476,143.546l-57.33,46.17c-1.4,1.379-23.56,23.393-48.608,61.244-5.978,9.04-10.509,15.434-14.658,19.147-4.115,3.685-7.862,4.731-12.289,3.09a8.677,8.677,0,0,1-5.348-5.189c-1.413-3.852-.346-8.957,3.173-15.184,1.053-1.863,2.362-4.073,3.817-6.47,1.254-2.044,2.6-4.226,4-6.442,4.891-7.765,10.252-15.96,13.092-20.262.229-.353.187-.617.152-.637a1.221,1.221,0,0,0-1.254.45c-1.06,1.171-2.5,2.757-4.191,4.627-2.307,2.549-5.161,5.7-8.243,9.082-4.551,5-9.594,10.495-14.062,15.226-.97,1.032-1.919,2.03-2.826,2.979-8.333,8.7-16.237,16.965-24.266,12.871a12.612,12.612,0,0,1-1.718-1.067,9.082,9.082,0,0,1-3.921-6.636c-.374-3.865,1.434-8.417,5.639-14.021a82.227,82.227,0,0,1,5.341-6.338c.27-.3.582-.63.921-1,3.734-4.073,11.278-12.407,17.914-19.819,3.006-3.346,5.819-6.512,8.008-9.005,1.15-1.309,2.134-2.438,2.875-3.311l.014-.014c.319-.374.319-.72.27-.776a.239.239,0,0,0-.173-.048,1.281,1.281,0,0,0-.894.319l-4.184,3.374-8.832,7.114-21.26,17.124-6.262,5.043-9.49,7.648a26.163,26.163,0,0,1-11.34,5.57c-4.052.783-7.772.118-10.509-2.044a10.165,10.165,0,0,1-1.7-1.669,11.871,11.871,0,0,1-2.3-4.773,12.107,12.107,0,0,1,.443-6.74c1.136-3.311,3.768-7.17,9.012-11.4l7.966-6.415,2.916-2.348,21.26-17.124,4.226-3.408,5.549-4.468,3.159-2.549,4.357-3.505c.561-.45.623-1.011.526-1.136a.4.4,0,0,0-.236-.09,1.237,1.237,0,0,0-.727.173c-.887.485-2.071,1.129-3.484,1.9-1.074.6-2.286,1.254-3.6,1.967-2.889,1.586-6.262,3.436-9.774,5.369-1.392.776-2.806,1.559-4.226,2.341-6.359,3.519-12.718,7.08-17.124,9.636a36.158,36.158,0,0,1-8.742,3.782c-.734.194-1.427.339-2.092.457a14.813,14.813,0,0,1-6.934-.312,9.11,9.11,0,0,1-5.653-4.794c-2.4-5.168-2.21-13.467,12.3-23.7,2.4-1.69,5.743-3.921,9.65-6.463,1.857-1.205,3.845-2.487,5.916-3.81,5.306-3.394,11.174-7.08,16.9-10.647,3.353-2.092,6.657-4.142,9.781-6.075,3.789-2.341,7.308-4.5,10.294-6.338,1.482-.907,2.84-1.739,4.032-2.466-.97-.09-2.009-.194-3.083-.291-3.706-.346-7.855-.707-11.243-.935-1.33-.083-2.542-.152-3.561-.194a40.681,40.681,0,0,1-6.221-.686c-5.646-1.088-9.975-3.38-12.469-6.678a11,11,0,0,1-1.877-9.49,20.808,20.808,0,0,1,1.6-4.42,19.92,19.92,0,0,1,12.746-10.315,32.156,32.156,0,0,1,11.652-1.011c10.869.887,32.038,3.387,45.366,4.593a15.169,15.169,0,0,0,10.689-3.505L355.251,67A177.513,177.513,0,0,1,404.476,143.546Z" transform="translate(-58.294 -20.588)"/><path class="f" d="M408.669,157.8l-57.33,46.17c-1.406,1.379-23.56,23.393-48.608,61.244-5.978,9.04-10.509,15.434-14.658,19.147-4.115,3.685-7.862,4.731-12.289,3.09a8.66,8.66,0,0,1-5.348-5.189c-1.413-3.852-.346-8.957,3.173-15.185,5.078-9.012,16.307-26.206,20.906-33.175.236-.36.187-.617.152-.637a1.221,1.221,0,0,0-1.254.45c-1.06,1.171-2.5,2.757-4.191,4.627-4.558,5.029-11.278,12.462-17.609,19.285-1.607,1.732-3.187,3.422-4.7,5.029q-1.455,1.548-2.819,2.972c-8.285,8.652-16.147,16.868-24.128,12.94a1.3,1.3,0,0,1-.139-.069,12.612,12.612,0,0,1-1.718-1.067,9.049,9.049,0,0,1-3.921-6.636c-.374-3.865,1.434-8.417,5.639-14.028.048-.062.1-.125.145-.194q2.172-2.878,5.2-6.144c.27-.3.575-.63.921-1,1.586-1.739,3.872-4.246,6.491-7.135,7.731-8.534,18.336-20.345,22.306-25l.014-.014c.319-.388.319-.72.277-.769a.294.294,0,0,0-.18-.055,1.306,1.306,0,0,0-.894.319L247.5,238.2l-7.53,6.068-.145.118-6.262,5.043-9.49,7.648a26.315,26.315,0,0,1-11.333,5.576,13.35,13.35,0,0,1-9.379-1.261l4.676-3.768,19.036-15.33,5.078-4.094,7.675-6.179.145-.118,37.324-30.064,4.988-4.018,28.09-22.624,76.74-61.819A176.791,176.791,0,0,1,408.669,157.8Z" transform="translate(-62.488 -34.839)"/><path class="g" d="M265.872,287.628v3.588l.007,98.512a178.647,178.647,0,0,1-90.5,1.579V304.253a15.2,15.2,0,0,0-3.969-10.516c-9.3-9.622-24.529-24.536-32.032-32.447-6.65-7-9.213-14.589-7.966-21.461a20.027,20.027,0,0,1,3.914-8.666,10.98,10.98,0,0,1,8.569-4.489c5.542-.173,11.756,3.367,17.464,9.934,2.868,3.3,8.368,9,12.324,13.044-1.974-15.178-6.733-52.737-7.613-66.522-1.129-17.72,5.223-23.075,10.744-24.446a9.123,9.123,0,0,1,7.287,1.392c2.826,1.884,6.532,6.248,8.077,16.3.651,4.2,1.6,9.892,2.625,15.815,1.877,10.931,3.99,22.652,4.821,27.245a1.267,1.267,0,0,0,.326.672.336.336,0,0,0,.215.125c.159,0,.554-.395.554-1.115V155.637c0-7.8,1.815-12.566,4.156-15.475l.007-.007a11.73,11.73,0,0,1,9.192-4.454c7.717-.007,13.321,8.195,13.328,19.5v28.658L227.4,205.88v13.564c0,.658.367,1,.457,1s.339-.222.429-.693c.125-.665.27-1.455.429-2.341.5-2.812,1.143-6.622,1.843-10.834.145-.866.291-1.76.436-2.66.88-5.341,1.8-11.09,2.6-16.127.817-5.147,1.5-9.553,1.863-11.991a72.557,72.557,0,0,1,2.238-10.474c.3-.984.617-1.9.949-2.757,1.531-3.907,3.436-6.553,5.777-8.091a9.1,9.1,0,0,1,7.627-1.108c10.342,2.743,8.77,14.838,7.107,27.64-.852,6.609-2.071,14.783-3.228,22.34-.831,5.355-1.628,10.4-2.251,14.346-.353,2.217-.658,4.129-.887,5.625-.035.187-.062.374-.09.547a2.212,2.212,0,0,0-.021.291,1.1,1.1,0,0,0,.45.963c.042.014.277-.118.4-.513,1.261-3.928,3.436-10.668,5.784-17.651,2.411-7.163,4.995-14.575,6.934-19.445,2.646-6.65,5.957-10.682,9.837-12a8.7,8.7,0,0,1,7.405.914c8.139,4.856,6.124,14.367-.423,34.927C269.315,254.606,266.066,285.675,265.872,287.628Z" transform="translate(-40.287 -41.697)"/><path class="h" d="M304.31,287.923v3.588l.007,98.512a177.54,177.54,0,0,1-48.117,6.643V285.582l.007-21.474V136.66c5.75,2.168,9.629,9.428,9.636,18.835l-.007,64.243c0,.665.374,1,.464,1,.062,0,.326-.215.423-.7,1.6-8.458,6.013-36.16,7.17-43.946,1.732-11.672,4.579-18.44,8.971-21.329a9.054,9.054,0,0,1,7.627-1.108c10.342,2.743,8.77,14.838,7.107,27.64-1.06,8.209-2.681,18.849-4.066,27.7-.52,3.325-1,6.394-1.413,8.992-.353,2.217-.658,4.129-.887,5.625-.035.187-.062.374-.09.547a2.209,2.209,0,0,0-.021.291,1.1,1.1,0,0,0,.45.963c.042.014.27-.111.4-.513,1.392-4.35,3.921-12.164,6.546-19.923,2.182-6.428,4.44-12.822,6.172-17.173,2.646-6.65,5.957-10.682,9.837-12a8.676,8.676,0,0,1,7.405.914,10.008,10.008,0,0,1,4.676,5.632c1.891,5.75-.471,14.762-5.1,29.3C307.752,254.9,304.5,285.97,304.31,287.923Z" transform="translate(-78.724 -41.992)"/></svg>