<svg xmlns="http://www.w3.org/2000/svg" width="600" height="528" viewBox="0 0 600 528">
    <defs>
        <style>
            .cls-1,.cls-5,.cls-6{fill:#6c9f9b}.cls-1,.cls-4{opacity:.1}.cls-2{fill:#f86d70}.cls-3{fill:#3f3d56}.cls-6{opacity:.3}.cls-7{fill:#fabdbd}.cls-8{fill:url(#linear-gradient)}.cls-9{fill:#434175}.cls-10{fill:#ae6e79}.cls-11{fill:#e8eaf2}
        </style>
        <linearGradient id="linear-gradient" x1=".09" x2=".908" y1=".505" y2=".505" gradientUnits="objectBoundingBox">
            <stop offset="0" stop-color="gray" stop-opacity=".251"/>
            <stop offset=".54" stop-color="gray" stop-opacity=".122"/>
            <stop offset="1" stop-color="gray" stop-opacity=".102"/>
        </linearGradient>
    </defs>
    <g id="undraw_japan_ubgk_1_" data-name="undraw_japan_ubgk (1)" transform="translate(-146.385 -62.066)">
        <path id="Path_1290" d="M811.663 689.348h-76.235l-22.005-208.026-.326-3.007v-.009l-1.867-17.68 76.26-.54 2.338-.017.163 1.7z" class="cls-1" data-name="Path 1290" transform="translate(-149.342 -101.176)"/>
        <path id="Path_1291" d="M663.205 473.429l-1.2 1.225L457.14 682.68H352.75l259.5-269.1 49.433 58.058z" class="cls-1" data-name="Path 1291" transform="translate(-97.576 -94.508)"/>
        <circle id="Ellipse_339" cx="136.195" cy="136.195" r="136.195" class="cls-2" data-name="Ellipse 339" transform="translate(418.644 172.223)"/>
        <path id="Path_1294" d="M801.264 755.5l-6.956 25.637a22.7 22.7 0 0 1-21.895 16.763H341.192a22.694 22.694 0 0 1-21.894-16.76l-6.957-25.64c-6.058-22.339 9.788-45.15 32.889-46.186.565 0 1.129-.043 1.711-.043h419.765c.573 0 1.138 0 1.711.043 23.076 1.036 38.922 23.846 32.847 46.186z" class="cls-3" data-name="Path 1294" transform="translate(-114.94 -209.53)"/>
        <path id="Path_1295" d="M764.882 720.937c0 27.693-93.983 50.143-209.911 50.143S345.06 748.63 345.06 720.937c0-4.026 1.979-7.932 5.713-11.667h408.4c3.722 3.73 5.709 7.641 5.709 11.667z" class="cls-4" data-name="Path 1295" transform="translate(-119.819 -209.53)"/>
        <path id="Path_1296" d="M880.806 583.418c0-20.455-18.8-37.038-41.972-37.038s-41.972 16.583-41.972 37.038c-23.179 0-41.972 16.592-41.972 37.047s18.8 37.047 41.972 37.047a46.152 46.152 0 0 0 20.995-4.968 46.828 46.828 0 0 0 41.972 0 46.152 46.152 0 0 0 20.995 4.968c23.187 0 41.972-16.592 41.972-37.047s-18.769-37.047-41.99-37.047z" class="cls-5" data-name="Path 1296" transform="translate(-179.159 -185.905)"/>
        <path id="Path_1297" d="M880.806 583.418c0-20.455-18.8-37.038-41.972-37.038s-41.972 16.583-41.972 37.038c-23.179 0-41.972 16.592-41.972 37.047s18.8 37.047 41.972 37.047a46.152 46.152 0 0 0 20.995-4.968 46.828 46.828 0 0 0 41.972 0 46.152 46.152 0 0 0 20.995 4.968c23.187 0 41.972-16.592 41.972-37.047s-18.769-37.047-41.99-37.047z" class="cls-4" data-name="Path 1297" transform="translate(-179.159 -185.905)"/>
        <path id="Path_1298" d="M732.771 345.863A41.877 41.877 0 0 0 730 330.83a42.066 42.066 0 0 0-14.048-81.717 42.066 42.066 0 0 0-82.976-9.782h-1.156a42.058 42.058 0 0 0-83.387-7.829 42.058 42.058 0 0 0-68.046 33.072 42.058 42.058 0 0 0-23.016 77.22 42.335 42.335 0 0 0-.814 8.266 42.066 42.066 0 1 0 21.029 78.488 42.066 42.066 0 0 0 42.066 0 42.049 42.049 0 0 0 49.681-5.636c.728 0 1.456.06 2.193.06a41.894 41.894 0 0 0 21.037-5.645 41.852 41.852 0 0 0 31.076 4.411 42.066 42.066 0 0 0 46.041 2.57 42.066 42.066 0 0 0 42.066 0 42.066 42.066 0 1 0 21.029-78.487zm-192.094 4.206a41.817 41.817 0 0 0-.36-5.414 39.346 39.346 0 0 0 3.169-1.636 39.95 39.95 0 0 0 5.234 2.57 43.049 43.049 0 0 0-5.842 4.548 31.573 31.573 0 0 0-2.202-.069z" class="cls-5" data-name="Path 1298" transform="translate(-130.096 -135.169)"/>
        <path id="Path_1299" d="M744.657 499.723a37.9 37.9 0 1 0-75.8 0 37.9 37.9 0 1 0 18.952 70.718 37.843 37.843 0 0 0 37.9 0 37.895 37.895 0 1 0 18.947-70.718z" class="cls-5" data-name="Path 1299" transform="translate(-161.225 -173.62)"/>
        <path id="Path_1300" d="M744.657 499.723a37.9 37.9 0 1 0-75.8 0 37.9 37.9 0 1 0 18.952 70.718 37.843 37.843 0 0 0 37.9 0 37.895 37.895 0 1 0 18.947-70.718z" class="cls-4" data-name="Path 1300" transform="translate(-161.225 -173.62)"/>
        <path id="Path_1301" d="M732.771 345.863A41.877 41.877 0 0 0 730 330.83a42.066 42.066 0 0 0-14.048-81.717 42.066 42.066 0 0 0-82.976-9.782h-1.156a42.058 42.058 0 0 0-83.387-7.829 42.058 42.058 0 0 0-68.046 33.072 42.058 42.058 0 0 0-23.016 77.22 42.335 42.335 0 0 0-.814 8.266 42.066 42.066 0 1 0 21.029 78.488 42.066 42.066 0 0 0 42.066 0 42.049 42.049 0 0 0 49.681-5.636c.728 0 1.456.06 2.193.06a41.894 41.894 0 0 0 21.037-5.645 41.852 41.852 0 0 0 31.076 4.411 42.066 42.066 0 0 0 46.041 2.57 42.066 42.066 0 0 0 42.066 0 42.066 42.066 0 1 0 21.029-78.487zm-192.094 4.206a41.817 41.817 0 0 0-.36-5.414 39.346 39.346 0 0 0 3.169-1.636 39.95 39.95 0 0 0 5.234 2.57 43.049 43.049 0 0 0-5.842 4.548 31.573 31.573 0 0 0-2.202-.069z" class="cls-4" data-name="Path 1301" transform="translate(-130.096 -135.169)"/>
        <path id="Path_1302" d="M712.145 586.6a42.026 42.026 0 0 0-10.082-3.067c-.351 0-.7-.068-1.062-.094a8.723 8.723 0 0 1 .043-1.062c.188-4.283 1.516-8.7 4.514-11.8s7.17-4.617 9.122-8.266a81.922 81.922 0 0 0-21.971-3.3c-1.893 0-3.906 0-5.491 1.079-1.944 1.259-2.784 3.641-3.426 5.885-1.97 7.435-3.3 14.716-5.551 21.971l-.591.137c-7.966 1.713-17.988.385-21.646-6.784a87.227 87.227 0 0 1 3.426-10.639c4.283-10.664 10.844-20.249 17.328-29.749q6.3-9.242 12.609-18.468A180.048 180.048 0 0 0 670.2 517.8c-1.37-.257-2.921-.463-4.06.343a5.31 5.31 0 0 0-1.636 2.5c-6.185 15.178-13.765 31.787-15.915 48.473a38.484 38.484 0 0 0-3.709-1.765l-19.924-8.5a6.852 6.852 0 0 1-2.775-1.764c-1.816-2.253 0-5.833 2.655-7.032s5.662-.857 8.566-1.114 6.107-1.311 7.187-4c1.251-3.092-1.139-6.587-4.06-8.206s-6.356-2.073-9.422-3.426a16.746 16.746 0 0 1-9.3-11.761l-4.754-.223c6.27-6 12.771-11.744 20.241-16.155 3.606-2.133 7.426-3.94 10.784-6.45a32.087 32.087 0 0 0 12.335-29.286c-.428-3.221-1.345-6.553-.326-9.636.856-2.51 2.792-4.437 4.7-6.262l17.208-16.463a133.79 133.79 0 0 0-33.406-3.289c-2.844.086-5.782.274-8.326 1.559-4.643 2.347-6.853 7.658-8.669 12.532a72.8 72.8 0 0 0-3.349 10.57c-1.268 6.082-1.079 12.746-4.514 17.911-2.724 4.094-7.255 6.51-11.324 9.268a63.506 63.506 0 0 0-24.607 32.754c-.274.857-.737 1.953-1.268 3.178a95.872 95.872 0 0 0-29.286 6.7c-11.726 4.934-21.962 12.771-32.01 20.558-11.067 8.566-22.708 18.151-26.6 31.616-4.326 14.947 2.347 31.342 13.028 42.657 8.737 9.242 19.821 15.752 31 21.6 7.307 3.82 8.523 3.041 14.939-2.1l17.251-13.825c4.925-3.94 9.936-7.983 13.285-13.328 4.617-7.358 5.756-16.7 11.35-23.359 7.658-9.122 23.273-9.885 31.8-1.567 2.45 2.4 4.583 5.533 7.923 6.33 1.628.394 3.426.171 4.917.857 2.844 1.353 3.272 5.139 4.283 8.086 2.784 7.94 12.24 12.095 20.558 10.9s15.487-6.6 21.114-12.849c1.533-1.713 3.049-3.529 5.14-4.548a13.1 13.1 0 0 1 5.311-1.131 35.005 35.005 0 0 1 17.508 3.88c5.028 2.57 9.422 6.381 14.707 8.386 10.459 3.957 22.151.2 32.4-4.283z" class="cls-3" data-name="Path 1302" transform="translate(-141.427 -169.682)"/>
        <path id="Path_1303" d="M712.145 586.6a42.026 42.026 0 0 0-10.082-3.067c-.351 0-.7-.068-1.062-.094a8.723 8.723 0 0 1 .043-1.062c.188-4.283 1.516-8.7 4.514-11.8s7.17-4.617 9.122-8.266a81.922 81.922 0 0 0-21.971-3.3c-1.893 0-3.906 0-5.491 1.079-1.944 1.259-2.784 3.641-3.426 5.885-1.97 7.435-3.3 14.716-5.551 21.971l-.591.137c-7.966 1.713-17.988.385-21.646-6.784a87.227 87.227 0 0 1 3.426-10.639c4.283-10.664 10.844-20.249 17.328-29.749q6.3-9.242 12.609-18.468A180.048 180.048 0 0 0 670.2 517.8c-1.37-.257-2.921-.463-4.06.343a5.31 5.31 0 0 0-1.636 2.5c-6.185 15.178-13.765 31.787-15.915 48.473a38.484 38.484 0 0 0-3.709-1.765l-19.924-8.5a6.852 6.852 0 0 1-2.775-1.764c-1.816-2.253 0-5.833 2.655-7.032s5.662-.857 8.566-1.114 6.107-1.311 7.187-4c1.251-3.092-1.139-6.587-4.06-8.206s-6.356-2.073-9.422-3.426a16.746 16.746 0 0 1-9.3-11.761l-4.754-.223c6.27-6 12.771-11.744 20.241-16.155 3.606-2.133 7.426-3.94 10.784-6.45a32.087 32.087 0 0 0 12.335-29.286c-.428-3.221-1.345-6.553-.326-9.636.856-2.51 2.792-4.437 4.7-6.262l17.208-16.463a133.79 133.79 0 0 0-33.406-3.289c-2.844.086-5.782.274-8.326 1.559-4.643 2.347-6.853 7.658-8.669 12.532a72.8 72.8 0 0 0-3.349 10.57c-1.268 6.082-1.079 12.746-4.514 17.911-2.724 4.094-7.255 6.51-11.324 9.268a63.506 63.506 0 0 0-24.607 32.754c-.274.857-.737 1.953-1.268 3.178a95.872 95.872 0 0 0-29.286 6.7c-11.726 4.934-21.962 12.771-32.01 20.558-11.067 8.566-22.708 18.151-26.6 31.616-4.326 14.947 2.347 31.342 13.028 42.657 8.737 9.242 19.821 15.752 31 21.6 7.307 3.82 8.523 3.041 14.939-2.1l17.251-13.825c4.925-3.94 9.936-7.983 13.285-13.328 4.617-7.358 5.756-16.7 11.35-23.359 7.658-9.122 23.273-9.885 31.8-1.567 2.45 2.4 4.583 5.533 7.923 6.33 1.628.394 3.426.171 4.917.857 2.844 1.353 3.272 5.139 4.283 8.086 2.784 7.94 12.24 12.095 20.558 10.9s15.487-6.6 21.114-12.849c1.533-1.713 3.049-3.529 5.14-4.548a13.1 13.1 0 0 1 5.311-1.131 35.005 35.005 0 0 1 17.508 3.88c5.028 2.57 9.422 6.381 14.707 8.386 10.459 3.957 22.151.2 32.4-4.283z" class="cls-4" data-name="Path 1303" transform="translate(-141.427 -169.682)"/>
        <path id="Path_1304" d="M560.453 483.226c0-21.063-22.185-38.126-49.561-38.126s-49.561 17.046-49.561 38.126c-27.41 0-49.561 17.063-49.561 38.126s22.185 38.117 49.561 38.117a61.05 61.05 0 0 0 24.781-5.139 62.6 62.6 0 0 0 49.561 0 61.05 61.05 0 0 0 24.781 5.139c27.41 0 49.561-17.063 49.561-38.117s-22.186-38.126-49.562-38.126z" class="cls-5" data-name="Path 1304" transform="translate(-129.576 -171.191)"/>
        <path id="Path_1305" d="M560.453 483.226c0-21.063-22.185-38.126-49.561-38.126s-49.561 17.046-49.561 38.126c-27.41 0-49.561 17.063-49.561 38.126s22.185 38.117 49.561 38.117a61.05 61.05 0 0 0 24.781-5.139 62.6 62.6 0 0 0 49.561 0 61.05 61.05 0 0 0 24.781 5.139c27.41 0 49.561-17.063 49.561-38.117s-22.186-38.126-49.562-38.126z" class="cls-4" data-name="Path 1305" transform="translate(-129.576 -171.191)"/>
        <path id="Path_1306" d="M671.219 693.32l-28.413-13.08c-2.278-1.054-4.805-2.364-5.516-4.78a10.414 10.414 0 0 1 0-3.957 32.473 32.473 0 0 0-4.223-19.547c-2.133-3.658-5.019-6.947-6.3-10.99-2.724-8.566 2.57-17.637 2.827-26.665.283-8.789-4.283-17.243-10.784-23.2a39.421 39.421 0 0 1-5.559-5.525c-4.4-6.184-2.57-14.562-.48-21.954l.54-.5c.4-.394.1-2.082-.634-4.583a69.623 69.623 0 0 0 22.849-10.839 31.843 31.843 0 0 1 6.852-4.334c3.529-1.413 7.529-1.251 11.093-2.57 6.647-2.476 10.339-9.422 13.431-15.8 7.324-15.067 14.776-30.639 15.7-47.368a36.7 36.7 0 0 0-20.917-7.641c-1.268-.051-2.707 0-3.538.994a4.531 4.531 0 0 0-.856 2.15 115.136 115.136 0 0 1-13.268 33.92 58.833 58.833 0 0 1-9.037 12.155c-4.283 4.283-9.542 7.478-14.716 10.656-4.351 2.664-10.176 5.259-15.118 8.317-3.426-8.806-6.553-16.84-6.15-18.074a70.4 70.4 0 0 0 .48-41.381c-.994-3.358-2.261-6.673-2.57-10.167s.385-6.938.659-10.416c.54-6.9-.514-13.808-.471-20.729.051-9.371 2.107-18.6 4.154-27.753a70.234 70.234 0 0 0-17.26-.925 6.672 6.672 0 0 0-3.246.857c-1.439.934-1.979 2.732-2.467 4.377-3.812 12.771-10.724 24.429-14.827 37.115s-4.985 27.547 2.647 38.477c2.715 3.88 6.51 7.392 7.109 12.086a19.39 19.39 0 0 1-.985 7.4c-1.156 4.343 17.448 51.009 18.485 55.317a1.49 1.49 0 0 0 .094.334c-.582.129-1.174.24-1.765.377a56.293 56.293 0 0 1-13.38 32.935 46.692 46.692 0 0 1-2.219-9.2c-.642-4.711-.583-9.568-2.047-14.091-2.193-6.75-7.486-11.923-12.112-17.294a110.086 110.086 0 0 1-19.435-32.712 79.9 79.9 0 0 1-10.707 3.144c-1.927.428-8.566.437-9.611 2.159-1.61 2.57 5.585 14.519 7.007 17.268 5.011 9.671 13.457 17.226 18.416 26.922a86.98 86.98 0 0 1 5.114 13.354c2.707 8.566 5.414 17.131 7.487 25.834-2.484 2.57-4.446 5.7-6.579 8.626a76.842 76.842 0 0 1-29.123 23.984c-1.379.651-2.9 1.379-3.495 2.784a3.736 3.736 0 0 0-.223.745c-4.711-3.323-9.114-7.033-12.18-11.863-1.353-2.141-2.424-4.463-3.9-6.519-4.96-6.912-13.637-9.833-20.738-14.562-3-1.987-5.791-4.343-9.105-5.739-3.64-1.542-7.666-1.833-11.607-2.1-3.229-.223-15.615-2.8-17.208.086-2.261 4.086 4.908 10.056 7.778 11.5 4.771 2.39 10.227 3 15.213 4.891a46.017 46.017 0 0 1 12.395 7.572 18.8 18.8 0 0 1 4.2 4.283c1.233 1.927 1.807 4.2 2.844 6.236 3.324 6.536 10.51 9.525 16.943 13.371a14.281 14.281 0 0 0-4.96 1.122c-4.788 2.176-7.015 7.563-10.133 11.8-2.784 3.76-6.45 6.767-9.516 10.279s-5.619 7.906-5.388 12.575c.146 2.955 1.336 6.184-.231 8.694 3.606 1.559 8.043 3.426 11.949 3.9s8.137-.274 11.058-2.9a28.752 28.752 0 0 1 2.9-2.7c2.475-1.653 5.867-1.191 8.514.163s4.831 3.469 7.255 5.208a29.817 29.817 0 0 0 24.147 4.668c1.713-.411 4.171-.762 3.64-2.407a21.68 21.68 0 0 1-12.5-18.913 15.136 15.136 0 0 1 14.63 5.379 3.508 3.508 0 0 0-2.57 5.259 28.387 28.387 0 0 0 22.922-12.437 11.992 11.992 0 0 1 16.53 11.722l12.386 6.116c1.944.959 4.009 1.945 6.176 1.8s4.377-1.893 4.214-4.051c-.188-2.476-3.161-5-1.533-6.853 2.912 1.3 5.139 3.872 8.129 4.994s7.392-.377 7.229-3.563a6.064 6.064 0 0 0-1.191-2.921 40.755 40.755 0 0 0-13.029-12.54c-.385-2.8 6-5.876 7.932-3.786l15.692 17.294a18.541 18.541 0 0 0 4.283 3.82c5.611 3.246 12.617 0 19.093 0 7.007 0 14.176 3.992 20.695 1.448 1.713-.66 3.426-2.278 2.938-4.043-.385-1.27-1.661-1.93-2.809-2.495z" class="cls-3" data-name="Path 1306" transform="translate(-134.113 -166.401)"/>
        <path id="Path_1307" d="M714.6 344.1a34.78 34.78 0 0 0-2.313-12.5 34.991 34.991 0 0 0-11.684-67.969 34.991 34.991 0 0 0-69.014-8.137h-.959a34.982 34.982 0 0 0-69.382-6.51 34.974 34.974 0 0 0-56.585 27.5 34.982 34.982 0 0 0-19.153 64.243 35.671 35.671 0 0 0-.677 6.853 34.991 34.991 0 1 0 17.491 65.279 34.949 34.949 0 0 0 34.991 0 34.94 34.94 0 0 0 41.312-4.686c.608 0 1.216.043 1.833.043a34.873 34.873 0 0 0 17.491-4.685 34.931 34.931 0 0 0 25.9 3.683 34.965 34.965 0 0 0 38.289 2.159 34.939 34.939 0 0 0 34.982 0 34.982 34.982 0 1 0 17.5-65.279zm-159.768 3.5a35.377 35.377 0 0 0-.3-4.5c.857-.428 1.782-.857 2.63-1.362a35.977 35.977 0 0 0 4.36 2.124 35.2 35.2 0 0 0-4.865 3.777c-.598-.019-1.214-.039-1.823-.039z" class="cls-5" data-name="Path 1307" transform="translate(-135.157 -138.485)"/>
        <path id="Path_1308" d="M877.883 584.962c0-19.316-17.748-34.982-39.651-34.982s-39.642 15.667-39.642 34.982c-21.9 0-39.651 15.667-39.651 34.991s17.748 34.982 39.651 34.982a43.524 43.524 0 0 0 19.821-4.72 44.216 44.216 0 0 0 39.651 0 43.52 43.52 0 0 0 19.821 4.694c21.9 0 39.651-15.658 39.651-34.982s-17.748-34.965-39.651-34.965z" class="cls-5" data-name="Path 1308" transform="translate(-179.74 -186.419)"/>
        <path id="Path_1309" d="M741.368 501.921a34.989 34.989 0 1 0-69.978 0 34.982 34.982 0 1 0 17.5 65.288 34.99 34.99 0 0 0 34.982 0 34.982 34.982 0 1 0 17.5-65.279z" class="cls-5" data-name="Path 1309" transform="translate(-162.008 -174.353)"/>
        <path id="Path_1310" d="M557.743 485.582c0-19.324-20.369-34.982-45.484-34.982s-45.484 15.658-45.484 34.982c-25.115 0-45.475 15.667-45.475 34.982s20.361 34.991 45.475 34.991a55.974 55.974 0 0 0 22.742-4.694 57.442 57.442 0 0 0 45.484 0 55.973 55.973 0 0 0 22.742 4.694c25.115 0 45.475-15.667 45.475-34.991s-20.36-34.982-45.475-34.982z" class="cls-5" data-name="Path 1310" transform="translate(-130.947 -171.98)"/>
        <path id="Path_1311" d="M462.45 605a37.319 37.319 0 1 0-74.637 0 37.321 37.321 0 1 0 18.66 69.631 37.3 37.3 0 0 0 37.321 0A37.312 37.312 0 1 0 462.45 605z" class="cls-5" data-name="Path 1311" transform="translate(-120.595 -189.002)"/>
        <path id="Path_1312" d="M462.45 605a37.319 37.319 0 1 0-74.637 0 37.321 37.321 0 1 0 18.66 69.631 37.3 37.3 0 0 0 37.321 0A37.312 37.312 0 1 0 462.45 605z" class="cls-4" data-name="Path 1312" transform="translate(-120.595 -189.002)"/>
        <path id="Path_1313" d="M460.906 606.751a34.989 34.989 0 1 0-69.977 0 34.982 34.982 0 1 0 17.5 65.279 35.008 35.008 0 0 0 34.991 0 34.982 34.982 0 1 0 17.491-65.279z" class="cls-5" data-name="Path 1313" transform="translate(-121.381 -189.583)"/>
        <path id="Path_1314" d="M600.792 278.811a33.818 33.818 0 0 1 33.492 29.125A33.817 33.817 0 1 0 567 303.3a34.967 34.967 0 0 0 .326 4.668 33.826 33.826 0 0 1 33.466-29.157z" class="cls-4" data-name="Path 1314" transform="translate(-151.934 -145.5)"/>
        <path id="Path_1315" d="M680.387 348.967a33.826 33.826 0 0 1 18.279 40.473 33.817 33.817 0 1 0-59.232-32.318 34.313 34.313 0 0 0-1.645 4.377 33.818 33.818 0 0 1 42.598-12.532z" class="cls-4" data-name="Path 1315" transform="translate(-162.15 -155.508)"/>
        <path id="Path_1316" d="M564.669 378.914a33.826 33.826 0 0 1 18.279 40.473 35.016 35.016 0 0 0 2.244-4.1 33.817 33.817 0 1 0-61.468-28.216 34.308 34.308 0 0 0-1.644 4.377 33.817 33.817 0 0 1 42.589-12.534z" class="cls-4" data-name="Path 1316" transform="translate(-145.45 -159.85)"/>
        <path id="Path_1317" d="M526.244 505.784a20.258 20.258 0 0 1 3.563 26.357 20.656 20.656 0 0 0 2-1.97 20.258 20.258 0 1 0-30.46-26.716 19.952 19.952 0 0 0-1.713 2.236 20.258 20.258 0 0 1 26.614.094z" class="cls-4" data-name="Path 1317" transform="translate(-142.199 -178.578)"/>
        <path id="Path_1318" d="M897.915 614.7a20.241 20.241 0 0 1 3.572 26.34 20.6 20.6 0 0 0 1.987-1.97 20.252 20.252 0 1 0-30.451-26.708 19.886 19.886 0 0 0-1.713 2.227 20.25 20.25 0 0 1 26.605.111z" class="cls-4" data-name="Path 1318" transform="translate(-195.858 -194.374)"/>
        <path id="Path_1319" d="M437.015 614.484a20.249 20.249 0 0 1 26.554 1.962 19.643 19.643 0 0 0-1.516-2.356 20.256 20.256 0 1 0-32.432 24.277 20.767 20.767 0 0 0 1.827 2.114 20.258 20.258 0 0 1 5.567-25.997z" class="cls-4" data-name="Path 1319" transform="translate(-131.515 -194.445)"/>
        <path id="Path_1320" d="M712.025 525.984a20.258 20.258 0 0 1 26.554 1.962 19.982 19.982 0 0 0-1.516-2.356 20.256 20.256 0 1 0-32.432 24.277 19.9 19.9 0 0 0 1.836 2.122 20.267 20.267 0 0 1 5.558-26.005z" class="cls-4" data-name="Path 1320" transform="translate(-171.193 -181.61)"/>
        <path id="Path_1321" d="M670.72 703.332c-2.244-1.713-1.961-5.85-1.961-5.85s3.914-1.3 6.159.437 3.118 4.369 1.962 5.859-3.916 1.301-6.16-.446z" class="cls-5" data-name="Path 1321" transform="translate(-166.582 -207.772)"/>
        <path id="Path_1322" d="M679.72 756.332c-2.244-1.713-1.961-5.851-1.961-5.851s3.915-1.3 6.159.437 3.118 4.369 1.962 5.859-3.916 1.302-6.16-.445z" class="cls-5" data-name="Path 1322" transform="translate(-167.88 -215.374)"/>
        <path id="Path_1323" d="M670.72 761.332c-2.244-1.713-1.961-5.85-1.961-5.85s3.914-1.3 6.159.437 3.118 4.369 1.962 5.859-3.916 1.301-6.16-.446z" class="cls-5" data-name="Path 1323" transform="translate(-166.582 -216.091)"/>
        <path id="Path_1324" d="M732.719 722.332c-2.244-1.713-1.961-5.85-1.961-5.85s3.915-1.3 6.159.437 3.118 4.369 1.962 5.859-3.915 1.301-6.16-.446z" class="cls-5" data-name="Path 1324" transform="translate(-175.524 -210.497)"/>
        <path id="Path_1325" d="M475.12 568.429c1.756-2.227 5.876-1.9 5.876-1.9s1.25 3.932-.514 6.159-4.394 3.075-5.876 1.9-1.25-3.932.514-6.159z" class="cls-5" data-name="Path 1325" transform="translate(-138.438 -188.693)"/>
        <circle id="Ellipse_340" cx="21.414" cy="21.414" r="21.414" class="cls-1" data-name="Ellipse 340" transform="translate(341.059 172.359)"/>
        <path id="Path_1327" d="M887 765.883a5.14 5.14 0 0 1 3.623-3.187 10.428 10.428 0 0 1 2.664-.248c5.422.094 9.534 2.57 14.484 3.709 4.728 1.122 10.116 1.062 15.3.976a51.33 51.33 0 0 0 9.705-.771c5.139-1.1 8.565-3.683 11.718-6.133" class="cls-6" data-name="Path 1327" transform="translate(-198.108 -216.839)"/>
        <path id="Path_1329" d="M896 783.623a1.79 1.79 0 0 1 1.319-.856 4.522 4.522 0 0 1 .977-.069c1.979 0 3.478.711 5.285 1.045a29.781 29.781 0 0 0 5.585.283 23.741 23.741 0 0 0 3.537-.223 11.133 11.133 0 0 0 4.283-1.713" class="cls-6" data-name="Path 1329" transform="translate(-199.399 -219.975)"/>
        <path id="Path_1330" d="M906 772.623a1.79 1.79 0 0 1 1.319-.857 4.544 4.544 0 0 1 .976-.068c1.979 0 3.478.711 5.285 1.045a29.8 29.8 0 0 0 5.585.283 23.745 23.745 0 0 0 3.537-.223 11.135 11.135 0 0 0 4.283-1.713" class="cls-6" data-name="Path 1330" transform="translate(-200.833 -218.397)"/>
        <path id="Path_1331" d="M282 754.749a1.884 1.884 0 0 1 1.379-.857 5.476 5.476 0 0 1 1.011-.06c2.056 0 3.623.651 5.5.959a35.869 35.869 0 0 0 5.816.257 28.549 28.549 0 0 0 3.683-.206 12.346 12.346 0 0 0 4.454-1.593" class="cls-6" data-name="Path 1331" transform="translate(-110.775 -215.838)"/>
        <path id="Path_1332" d="M253 755.749a1.884 1.884 0 0 1 1.379-.857 5.491 5.491 0 0 1 1.011-.06c2.056 0 3.623.651 5.5.959a35.841 35.841 0 0 0 5.816.257 28.516 28.516 0 0 0 3.683-.206 12.345 12.345 0 0 0 4.454-1.593" class="cls-6" data-name="Path 1332" transform="translate(-106.615 -215.982)"/>
        <path id="Path_1334" d="M818.513 738.88a1.714 1.714 0 0 0-.06.968c.2.643.985.857 1.662.942a34.026 34.026 0 0 0 4.677.111l14.116-.274a1.216 1.216 0 0 0 .634-.12 1.342 1.342 0 0 0 .42-.505 16.165 16.165 0 0 0 1.833-5.7 1.543 1.543 0 0 0-.06-.857 1.627 1.627 0 0 0-.977-.7 58.065 58.065 0 0 0-6.107-1.936 32.651 32.651 0 0 1-3.992-1.156c-1.713-.668-3.426-2.184-5.139-2.5-1.533-.266-1.782.917-2.27 2.116-1.362 3.324-3.769 6.131-4.737 9.611z" class="cls-7" data-name="Path 1334" transform="translate(-188.27 -212.09)"/>
        <path id="Path_1335" d="M871.172 748.15c-.351-1.636-1.8-2.784-3.178-3.752s-2.861-1.944-4.326-2.844a29.917 29.917 0 0 0 6.536-4.822 15.292 15.292 0 0 0 3.032-3.495 5.928 5.928 0 0 0 .745-4.454 6.151 6.151 0 0 0-3.778-3.795 17.429 17.429 0 0 0-5.448-.959 205.61 205.61 0 0 0-3.991-.223 23.6 23.6 0 0 0 2.467-.608 41.794 41.794 0 0 0 8.566-3.932 3.786 3.786 0 0 0 2.039-2.064 2.407 2.407 0 0 0-1-2.407 4.737 4.737 0 0 0-2.57-.857 9.2 9.2 0 0 0-6.853 2.57 10.756 10.756 0 0 1-1.944 1.713 1.961 1.961 0 0 1-2.707-.445 2.724 2.724 0 0 1-.3-1.225l.051-.043a8.839 8.839 0 0 0 2.784-7.786 21.156 21.156 0 0 0-2.116-6.21 17.38 17.38 0 0 1 4.531-.985 3.974 3.974 0 0 0 1.234-.214 2.93 2.93 0 0 0 1.49-2.039 13.3 13.3 0 0 1 .72-2.458 8.96 8.96 0 0 0 11.735-1.893 9.352 9.352 0 0 0 4.788-1.071c1.756-1.028 3.341-3.52 2.3-5.55a8.365 8.365 0 0 0-1.516-1.645 9.038 9.038 0 0 1-1.61-2.9c-1.876-4.72-5.867-6.561-10.724-7.3a21.85 21.85 0 0 0-6.6-.171 26.012 26.012 0 0 0-4.917 1.422l-.771.291c-.06-1.276-.266-2.57-.317-3.572a2.688 2.688 0 0 1 .129-1.251 2.887 2.887 0 0 1 1.713-1.285l9.671-4.129a20.158 20.158 0 0 1 3.178-1.156c3.161-.754 6.69 0 9.568-1.491a6.672 6.672 0 0 0 3.366-4.283c.326-1.31.112-2.93-1.053-3.623s-2.775-.1-4.034.531a98.185 98.185 0 0 1-12.677 5.7c-4.163 1.4-8.566 2.244-12.446 4.283a7.344 7.344 0 0 0-1.919 1.293 8.711 8.711 0 0 0-1.439 2.227l-1.516 2.878c-1.191 2.33-2.373 5.071-1.405 7.452a3.308 3.308 0 0 0-.385.522c-.437.7-.231 1.619-.6 2.236s-1.773 1.225-2.441 1.713a50.791 50.791 0 0 0-2.707 1.979 64.458 64.458 0 0 0-9.319 9.148 168.975 168.975 0 0 0-11.5 15.984 10.972 10.972 0 0 0-1.6 3.075 5.429 5.429 0 0 0 .086 3.092c-1.4 3.049-3.572 5.722-4.489 8.977l-.557.094c-1.028 2.964-.368 6.381.171 9.482.3 1.765.72 3.692 2.167 4.771a7.383 7.383 0 0 0 2.57 1.036 49.57 49.57 0 0 1 2.921.857h-.12c-1.191-.111-2.57 0-3.281.925a4.016 4.016 0 0 0-.6 1.713l-2.236 12.6a4.394 4.394 0 0 0 .129 2.8 4 4 0 0 0 2.039 1.593 17.207 17.207 0 0 0 4.745 1.31 4.068 4.068 0 0 0 2.03-.128 1.6 1.6 0 0 0 1.053-1.576c-.137-.959-1.328-1.413-1.713-2.287-.557-1.139.351-2.407 1.2-3.341.129-.146.274-.291.428-.445a12.461 12.461 0 0 0 1.362 2.775 2.159 2.159 0 0 0 2.073 1.131q2.981-.668 6-1.268l.385.163a66.876 66.876 0 0 0 10.176 3.349 4.871 4.871 0 0 0 2.013.171 1.713 1.713 0 0 0 1.379-1.293c.094-.805-.6-1.473-1.268-1.953a16.093 16.093 0 0 0-4.112-2.064l6.527-1.191a34.266 34.266 0 0 1 6.6-.762c2.861.051 6 .728 8.326-.951a8.4 8.4 0 0 0 2.655-4.283 6.279 6.279 0 0 0 .405-3.377zm-22.536-24.65h-3.306c.12-.857.18-1.713.3-2.57a1.277 1.277 0 0 1 .266-.728 1.346 1.346 0 0 1 .779-.334l4.069-.8a2.518 2.518 0 0 0-.274-1.97 5.307 5.307 0 0 0 1 .574 12.189 12.189 0 0 0 .856 4.9 2.253 2.253 0 0 0 .651.934h.051c-1.463.009-2.928-.006-4.392-.006z" class="cls-8" data-name="Path 1335" transform="translate(-188.011 -202.018)"/>
        <path id="Path_1336" d="M867.137 735.66a16.945 16.945 0 0 1 5.328.925 6 6 0 0 1 3.675 3.735 5.919 5.919 0 0 1-.736 4.4 15.419 15.419 0 0 1-2.972 3.426 26.876 26.876 0 0 1-7.4 5.242c-1.353.591-2.784.993-4.1 1.645-2.818 1.388-4.985 3.795-7.067 6.15a31.488 31.488 0 0 0-5.234 7.135c-.1.2-.214.428-.428.5a.856.856 0 0 1-.582-.12l-6-2.835a1.019 1.019 0 0 1-.479-1.713 45.541 45.541 0 0 1 11.829-14.219 14.888 14.888 0 0 1-13.628.283 5.249 5.249 0 0 1-2.124-1.713c-1.062-1.636-.411-3.812.394-5.593a39.876 39.876 0 0 1 2.476-4.574c2.2-3.512 7.572-3.2 11.272-3.2q7.861.038 15.776.526z" class="cls-9" data-name="Path 1336" transform="translate(-190.888 -213.239)"/>
        <path id="Path_1337" d="M862.1 749.938a7.041 7.041 0 0 0-2.818.942c1.482-1 4.874-.745 6.613-.917a22.07 22.07 0 0 0 6.51-1.233 70.611 70.611 0 0 0-10.305 1.208z" class="cls-4" data-name="Path 1337" transform="translate(-194.132 -215.19)"/>
        <path id="Path_1338" d="M828.827 772.919c-.857.925-1.713 2.176-1.182 3.3.411.857 1.576 1.3 1.713 2.253a1.568 1.568 0 0 1-1.036 1.55 3.873 3.873 0 0 1-1.979.137 16.436 16.436 0 0 1-4.634-1.285 3.813 3.813 0 0 1-1.987-1.559 4.386 4.386 0 0 1-.12-2.758l2.21-12.532a3.9 3.9 0 0 1 .591-1.713c.7-.925 2.047-1.028 3.2-.916a15.283 15.283 0 0 1 3.8.857 4.085 4.085 0 0 1 2.15 1.439 4.754 4.754 0 0 1 .42 2.878c-.1 1.533.154 3.761-.411 5.191-.456 1.162-1.912 2.233-2.735 3.158z" class="cls-2" data-name="Path 1338" transform="translate(-188.417 -216.714)"/>
        <path id="Path_1339" d="M846.757 774.314A15.52 15.52 0 0 1 853.61 777c.651.471 1.328 1.131 1.234 1.927a1.654 1.654 0 0 1-1.353 1.276 4.634 4.634 0 0 1-1.962-.171 63.781 63.781 0 0 1-9.962-3.238 5.406 5.406 0 0 1-2.253-1.431 2 2 0 0 1-.163-2.475c.625-.728 1.8-.7 2.57-1.319.531-.445.857-1.225 1.525-1.353a1.884 1.884 0 0 1 1.345.471c.574.394 2.047 1.019 2.347 1.713a7.981 7.981 0 0 1-.181 1.914z" class="cls-2" data-name="Path 1339" transform="translate(-191.195 -218.272)"/>
        <path id="Path_1340" d="M817.83 740.589a124.154 124.154 0 0 1 12.429-1.713c3.084-.223 6.424-.137 8.891 1.713.737.548 1.362 1.233 2.056 1.833 2.33 2.022 5.336 3.032 8.215 4.146a84.535 84.535 0 0 1 18.048 9.722c1.345.942 2.758 2.073 3.1 3.683a6.407 6.407 0 0 1-.454 3.332 8.421 8.421 0 0 1-2.57 4.283c-2.244 1.653-5.353.994-8.146.959a33.423 33.423 0 0 0-6.441.762c-6.9 1.276-13.8 2.57-20.643 4.12a2.064 2.064 0 0 1-2.022-1.113 13.705 13.705 0 0 1-2.107-7.2 27.934 27.934 0 0 1 .985-7.521c-2.347-.625-4.231-1.242-6.578-1.867a7.122 7.122 0 0 1-2.484-1.019c-1.4-1.054-1.816-2.964-2.107-4.7-.557-3.125-1.183-6.482-.172-9.42z" class="cls-9" data-name="Path 1340" transform="translate(-188.11 -213.764)"/>
        <path id="Path_1341" d="M860.472 763.869a12.346 12.346 0 0 0-5.2-2.253 18.738 18.738 0 0 0-3.426-.651 27.971 27.971 0 0 0-5.4.531 32.266 32.266 0 0 1-13.02-.857" class="cls-4" data-name="Path 1341" transform="translate(-190.424 -216.898)"/>
        <path id="Path_1342" d="M893.392 647.4s-18.913 83.944-17.928 86.359 7.1 14.562-4.035 53a3.289 3.289 0 0 1-3.429 2.947c-3.126 0-13.988-3.178-13.988-3.178a3.718 3.718 0 0 1-.942-3.426c.385-2.261 4.283-39.171 18.193-51.446l17.286-84.929a3.675 3.675 0 0 1 4.843.673z" class="cls-10" data-name="Path 1342" transform="translate(-193.228 -200.472)"/>
        <path id="Path_1343" d="M894.34 640.751l5.371.917a2.862 2.862 0 0 1 2.313 2.15c.368 1.593.137 3.632-3.426 3.7-5.825.111-4.608-1.55-4.608-1.55s-2.87 0-3.049-2.227a2.852 2.852 0 0 1 3.4-2.99z" class="cls-10" data-name="Path 1343" transform="translate(-198.672 -199.444)"/>
        <path id="Path_1344" d="M867.153 694.376a7.143 7.143 0 0 1-5.139-2.3 3.423 3.423 0 0 0-.917-.762 2.159 2.159 0 0 0-1.953.248 5.975 5.975 0 0 0-2.57 5.8 13.25 13.25 0 0 0 2.715 6.056 38.114 38.114 0 0 0 3.426 4.163 8.18 8.18 0 0 1 5.5-3.075c1.927-.214 3.7-1.713 5.139-3 1.062-.976 1.713-.745 1.362-2.141a18.336 18.336 0 0 0-1.79-3.915 10.759 10.759 0 0 1-.925-2.287c-.231-.925 0-1.422-.857-.968-.574.3-1.011 1.156-1.653 1.516a5.318 5.318 0 0 1-2.338.665z" class="cls-7" data-name="Path 1344" transform="translate(-193.739 -206.776)"/>
        <path id="Path_1345" d="M864.91 675.757a2.733 2.733 0 0 1 .129-1.233 2.886 2.886 0 0 1 1.645-1.276l9.422-4.1a19.026 19.026 0 0 1 3.109-1.139c3.084-.754 6.536 0 9.354-1.5a6.6 6.6 0 0 0 3.3-4.214c.317-1.285.111-2.878-1.019-3.563s-2.707-.094-3.949.54a96.7 96.7 0 0 1-12.36 5.645c-4.069 1.4-8.36 2.244-12.172 4.223a7.286 7.286 0 0 0-1.876 1.285 8.954 8.954 0 0 0-1.413 2.2l-1.439 2.852c-1.225 2.407-2.45 5.259-1.259 7.709a2.835 2.835 0 0 0 1.807 1.585 4.036 4.036 0 0 0 1.713-.12c1.473-.308 3.932-.317 4.745-1.807 1.06-1.904.366-5.082.263-7.087z" class="cls-7" data-name="Path 1345" transform="translate(-193.646 -202.04)"/>
        <path id="Path_1346" d="M866.872 728.411a10.739 10.739 0 0 0 1.9-1.713 9.046 9.046 0 0 1 6.681-2.51 4.645 4.645 0 0 1 2.57.8 2.373 2.373 0 0 1 .968 2.373 3.692 3.692 0 0 1-2 2.039 40.7 40.7 0 0 1-8.4 3.906 18.688 18.688 0 0 1-9.157.651 2.234 2.234 0 0 1-.857-.317 2.143 2.143 0 0 1-.625-.917c-1.045-2.458-.857-5.233-.634-7.889-.094.959 5.619.206 6.125.634.745.625.343 1.807.805 2.57a1.919 1.919 0 0 0 2.624.373z" class="cls-7" data-name="Path 1346" transform="translate(-193.826 -211.669)"/>
        <circle id="Ellipse_341" cx="8.677" cy="8.677" r="8.677" class="cls-7" data-name="Ellipse 341" transform="translate(674.673 479.778)"/>
        <path id="Path_1347" d="M853.455 685.3a11.707 11.707 0 0 1 5.139-.377 1.893 1.893 0 0 1 2.21 1.713 9.349 9.349 0 0 1 .4 2.947 3.161 3.161 0 0 1-1.379 2.518c-.634.385-1.413.445-2.064.814a3.289 3.289 0 0 0-1.482 2.57 8.513 8.513 0 0 0 .377 3.032 49.1 49.1 0 0 0 2.57 7.3c1.079 2.458 2.39 4.891 2.707 7.563a8.848 8.848 0 0 1-2.741 7.709 6.578 6.578 0 0 1-7.863.574 2.484 2.484 0 0 1 .265 1.927l-3.983.805a1.011 1.011 0 0 0-1.028 1.053 22.924 22.924 0 0 1-.72 4.4 4.283 4.283 0 0 1-3.006 3.024c-1.354.257-2.681-.42-3.915-1.036a50.467 50.467 0 0 0-8.985-3.426 12.4 12.4 0 0 1-4.411-1.781 5.628 5.628 0 0 1-1.927-5.782 11.047 11.047 0 0 1 1.581-3.047 167.9 167.9 0 0 1 11.289-15.8 63.3 63.3 0 0 1 9.131-9.045 38.576 38.576 0 0 1 2.647-1.962c.66-.454 1.987-.968 2.39-1.653s.163-1.516.591-2.218a4.607 4.607 0 0 1 2.21-1.833z" class="cls-2" data-name="Path 1347" transform="translate(-188.992 -206.019)"/>
        <path id="Path_1348" d="M886.7 698.079a9.49 9.49 0 0 1-5.139 1.062c-1.765-.06-3.512-.377-5.276-.454-2.184-.094-4.728.394-5.739 2.321a12.594 12.594 0 0 0-.719 2.467 2.963 2.963 0 0 1-1.465 2.013 4.155 4.155 0 0 1-1.208.214 18.476 18.476 0 0 0-15.881 13.423 8.352 8.352 0 0 1-2.39-6.853c-.591 2.218-3.092 3.983-2.57 6.227a10.536 10.536 0 0 1 1.508-15.5c1.131-.857 2.424-1.456 3.6-2.244a14.383 14.383 0 0 0 6.142-9.713c.248-1.662.214-3.426.994-4.917 1.079-2.073 3.426-3.092 5.61-3.906a25.626 25.626 0 0 1 4.814-1.413 21.406 21.406 0 0 1 6.441.146c4.745.719 8.643 2.527 10.459 7.178a8.777 8.777 0 0 0 1.576 2.852 8.564 8.564 0 0 1 1.473 1.628c1.045 1.957-.506 4.415-2.23 5.469z" class="cls-9" data-name="Path 1348" transform="translate(-191.883 -205.423)"/>
        <path id="Path_1349" d="M300 810.672s71.16-33.235 97.952-21.577 89.72 9.328 89.72 9.328 111.823-4.625 124.659 0 129.314 4.668 135.133 0 72.23-8.163 82.721 0a93.63 93.63 0 0 0 20.965 12.249z" class="cls-11" data-name="Path 1349" transform="translate(-113.356 -220.624)"/>
        <path id="Path_1350" d="M300 809.915s71.16-39.48 97.952-25.629 89.7 11.084 89.7 11.084 111.841-5.542 124.659 0 129.314 5.542 135.133 0 72.23-9.7 82.721 0a90.7 90.7 0 0 0 20.965 14.562z" class="cls-6" data-name="Path 1350" transform="translate(-113.356 -219.867)"/>
    </g>
</svg>
