<svg xmlns="http://www.w3.org/2000/svg" xmlns:xlink="http://www.w3.org/1999/xlink" width="75.933" height="75.932" viewBox="0 0 75.933 75.932"><defs><style>.a,.b{fill:none;}.a{clip-rule:evenodd;}.c{clip-path:url(#c);}.d{clip-path:url(#d);}.e{fill:#177eb8;}.f{clip-path:url(#e);}.g{fill:#fff;}.h{filter:url(#a);}</style><filter id="a" x="-1.5" y="-0.5" width="78.933" height="78.932" filterUnits="userSpaceOnUse"><feOffset dy="1" input="SourceAlpha"/><feGaussianBlur stdDeviation="0.5" result="b"/><feFlood flood-opacity="0.161"/><feComposite operator="in" in2="b"/><feComposite in="SourceGraphic"/></filter><clipPath id="c"><g class="h" transform="matrix(1, 0, 0, 1, 0, 0)"><path class="a" d="M76.493-38.9A37.966,37.966,0,0,1,38.527-.939,37.966,37.966,0,0,1,.561-38.9,37.966,37.966,0,0,1,38.527-76.871,37.966,37.966,0,0,1,76.493-38.9"/></g></clipPath><clipPath id="d"><path class="b" d="M-655,339H605V-544H-655Z"/></clipPath><clipPath id="e"><path class="a" d="M21.677-44.644h7.19v22.782h-7.19Zm26.835-.219c5.11,0,9.125,3.277,9.125,10.334v12.667H49.484V-33.651c0-3.086-1.275-5.193-4.08-5.193a4.114,4.114,0,0,0-3.893,2.792,5.2,5.2,0,0,0-.176,1.862v12.328H33.258s.1-20.883,0-22.782h8.077v3.576C41.812-42.632,44.393-44.863,48.512-44.863ZM25.139-55.4a3.993,3.993,0,0,1,4.336,3.949c0,2.207-1.683,3.955-4.386,3.955h-.052a3.975,3.975,0,0,1-4.29-3.949C20.747-53.693,22.484-55.4,25.139-55.4Z"/></clipPath></defs><g transform="translate(-0.561 76.871)"><g class="c"><g class="d"><path class="e" d="M-4.439-81.871H81.493V4.061H-4.439Z"/></g></g><g class="f"><g class="d"><path class="g" d="M15.747-60.4h46.89v43.536H15.747Z"/></g></g></g></svg>